%TF.GenerationSoftware,KiCad,Pcbnew,10.0.3-2.fc44*%
%TF.CreationDate,2026-06-02T16:33:18-06:00*%
%TF.ProjectId,lego-maya,6c65676f-2d6d-4617-9961-2e6b69636164,rev?*%
%TF.SameCoordinates,Original*%
%TF.FileFunction,Copper,L1,Top*%
%TF.FilePolarity,Positive*%
%FSLAX46Y46*%
G04 Gerber Fmt 4.6, Leading zero omitted, Abs format (unit mm)*
G04 Created by KiCad (PCBNEW 10.0.3-2.fc44) date 2026-06-02 16:33:18*
%MOMM*%
%LPD*%
G01*
G04 APERTURE LIST*
%TA.AperFunction,ComponentPad*%
%ADD10R,1.700000X1.700000*%
%TD*%
%TA.AperFunction,ComponentPad*%
%ADD11C,1.700000*%
%TD*%
%TA.AperFunction,ComponentPad*%
%ADD12C,4.700000*%
%TD*%
%TA.AperFunction,ComponentPad*%
%ADD13C,2.794000*%
%TD*%
%TA.AperFunction,Conductor*%
%ADD14C,0.200000*%
%TD*%
G04 APERTURE END LIST*
D10*
%TO.P,J2,1,3V3_1*%
%TO.N,VDD*%
X125820000Y-88500000D03*
D11*
%TO.P,J2,2,5V_2*%
%TO.N,VCC*%
X125820000Y-85960000D03*
%TO.P,J2,3,SDA_I2C1/GPIO02_3*%
%TO.N,unconnected-(J2-SDA_I2C1{slash}GPIO02-Pad3)*%
X128360000Y-88500000D03*
%TO.P,J2,4,5V_4*%
%TO.N,VCC*%
X128360000Y-85960000D03*
%TO.P,J2,5,SCL_I2C1/GPIO03_5*%
%TO.N,unconnected-(J2-SCL_I2C1{slash}GPIO03-Pad5)*%
X130900000Y-88500000D03*
%TO.P,J2,6,GND_6*%
%TO.N,GND*%
X130900000Y-85960000D03*
%TO.P,J2,7,GPCLK0/GPIO04_7*%
%TO.N,unconnected-(J2-GPCLK0{slash}GPIO04-Pad7)*%
X133440000Y-88500000D03*
%TO.P,J2,8,GPIO14/UART_TXD_8*%
%TO.N,unconnected-(J2-GPIO14{slash}UART_TXD-Pad8)*%
X133440000Y-85960000D03*
%TO.P,J2,9,GND_9*%
%TO.N,GND*%
X135980000Y-88500000D03*
%TO.P,J2,10,GPIO15/UART_RXD_10*%
%TO.N,unconnected-(J2-GPIO15{slash}UART_RXD-Pad10)*%
X135980000Y-85960000D03*
%TO.P,J2,11,GPIO17/SPI1_~{CE1}_11*%
%TO.N,unconnected-(J2-GPIO17{slash}SPI1_~{CE1}-Pad11)*%
X138520000Y-88500000D03*
%TO.P,J2,12,GPIO18/SPI1_~{CE0}/PCM_CLK/PWM0_12*%
%TO.N,Net-(J2-GPIO18{slash}SPI1_~{CE0}{slash}PCM_CLK{slash}PWM0)*%
X138520000Y-85960000D03*
%TO.P,J2,13,GPIO27/SDIO_DAT3_13*%
%TO.N,Net-(J2-GPIO27{slash}SDIO_DAT3)*%
X141060000Y-88500000D03*
%TO.P,J2,14,GND_14*%
%TO.N,GND*%
X141060000Y-85960000D03*
%TO.P,J2,15,GPIO22/SDIO_CLK_15*%
%TO.N,Net-(J2-GPIO22{slash}SDIO_CLK)*%
X143600000Y-88500000D03*
%TO.P,J2,16,GPIO23/SDIO_CMD_16*%
%TO.N,unconnected-(J2-GPIO23{slash}SDIO_CMD-Pad16)*%
X143600000Y-85960000D03*
%TO.P,J2,17,3V3_17*%
%TO.N,VDD*%
X146140000Y-88500000D03*
%TO.P,J2,18,GPIO24/SDIO_DAT0_18*%
%TO.N,unconnected-(J2-GPIO24{slash}SDIO_DAT0-Pad18)*%
X146140000Y-85960000D03*
%TO.P,J2,19,MOSI_SPI0/GPIO10_19*%
%TO.N,Net-(J2-MOSI_SPI0{slash}GPIO10)*%
X148680000Y-88500000D03*
%TO.P,J2,20,GND_20*%
%TO.N,GND*%
X148680000Y-85960000D03*
%TO.P,J2,21,MISO_SPI0/GPIO09_21*%
%TO.N,unconnected-(J2-MISO_SPI0{slash}GPIO09-Pad21)*%
X151220000Y-88500000D03*
%TO.P,J2,22,GPIO25/SDIO_DAT1_22*%
%TO.N,Net-(J2-GPIO25{slash}SDIO_DAT1)*%
X151220000Y-85960000D03*
%TO.P,J2,23,SCLK_SPI0/GPIO11_23*%
%TO.N,Net-(J2-SCLK_SPI0{slash}GPIO11)*%
X153760000Y-88500000D03*
%TO.P,J2,24,~{CE0}_SPI0/GPIO08_24*%
%TO.N,Net-(J2-~{CE0}_SPI0{slash}GPIO08)*%
X153760000Y-85960000D03*
%TO.P,J2,25,GND_25*%
%TO.N,GND*%
X156300000Y-88500000D03*
%TO.P,J2,26,~{CE1}_SPI0/GPIO07_26*%
%TO.N,Net-(J2-~{CE1}_SPI0{slash}GPIO07)*%
X156300000Y-85960000D03*
%TO.P,J2,27,ID_SD_I2C0/GPIO00_27*%
%TO.N,unconnected-(J2-ID_SD_I2C0{slash}GPIO00-Pad27)*%
X158840000Y-88500000D03*
%TO.P,J2,28,ID_SC_I2C0/GPIO01_28*%
%TO.N,unconnected-(J2-ID_SC_I2C0{slash}GPIO01-Pad28)*%
X158840000Y-85960000D03*
%TO.P,J2,29,GPCLK1/GPIO05_29*%
%TO.N,unconnected-(J2-GPCLK1{slash}GPIO05-Pad29)*%
X161380000Y-88500000D03*
%TO.P,J2,30,GND_30*%
%TO.N,GND*%
X161380000Y-85960000D03*
%TO.P,J2,31,GPCLK2/GPIO06_31*%
%TO.N,Net-(J2-GPCLK2{slash}GPIO06)*%
X163920000Y-88500000D03*
%TO.P,J2,32,GPIO12/PWM0_32*%
%TO.N,Net-(D1-A)*%
X163920000Y-85960000D03*
%TO.P,J2,33,GPIO13/PWM1_33*%
%TO.N,unconnected-(J2-GPIO13{slash}PWM1-Pad33)*%
X166460000Y-88500000D03*
%TO.P,J2,34,GND_34*%
%TO.N,GND*%
X166460000Y-85960000D03*
%TO.P,J2,35,GPIO19/SPI1_MISO/PCM_FS_35*%
%TO.N,Net-(J2-GPIO19{slash}SPI1_MISO{slash}PCM_FS)*%
X169000000Y-88500000D03*
%TO.P,J2,36,GPIO16/SPI1_~{CE2}_36*%
%TO.N,unconnected-(J2-GPIO16{slash}SPI1_~{CE2}-Pad36)*%
X169000000Y-85960000D03*
%TO.P,J2,37,GPIO26/SDIO_DAT2_37*%
%TO.N,unconnected-(J2-GPIO26{slash}SDIO_DAT2-Pad37)*%
X171540000Y-88500000D03*
%TO.P,J2,38,GPIO20/SPI1_MOSI/PCM_DIN/PWM1_38*%
%TO.N,Net-(J2-GPIO20{slash}SPI1_MOSI{slash}PCM_DIN{slash}PWM1)*%
X171540000Y-85960000D03*
%TO.P,J2,39,GND_39*%
%TO.N,GND*%
X174080000Y-88500000D03*
%TO.P,J2,40,GPIO21/SPI1_SCLK/PCM_DOUT_40*%
%TO.N,Net-(J2-GPIO21{slash}SPI1_SCLK{slash}PCM_DOUT)*%
X174080000Y-85960000D03*
%TD*%
D10*
%TO.P,SW1,1,1_1*%
%TO.N,Net-(J2-GPCLK2{slash}GPIO06)*%
X130000000Y-110500000D03*
D11*
%TO.P,SW1,2,2_2*%
%TO.N,GND*%
X127460000Y-110500000D03*
%TD*%
D10*
%TO.P,D1,1,K_1*%
%TO.N,GND*%
X169960000Y-111000000D03*
D11*
%TO.P,D1,2,A_2*%
%TO.N,Net-(D1-A)*%
X172500000Y-111000000D03*
%TD*%
D10*
%TO.P,Right_eye1,1,RST_1*%
%TO.N,Net-(J2-GPIO27{slash}SDIO_DAT3)*%
X162900000Y-96010000D03*
D11*
%TO.P,Right_eye1,2,CS_2*%
%TO.N,Net-(J2-~{CE0}_SPI0{slash}GPIO08)*%
X162900000Y-98550000D03*
%TO.P,Right_eye1,3,DC_3*%
%TO.N,Net-(J2-GPIO22{slash}SDIO_CLK)*%
X162900000Y-101090000D03*
%TO.P,Right_eye1,4,SDA_4*%
%TO.N,Net-(J2-MOSI_SPI0{slash}GPIO10)*%
X162900000Y-103630000D03*
%TO.P,Right_eye1,5,SCL_5*%
%TO.N,Net-(J2-SCLK_SPI0{slash}GPIO11)*%
X162900000Y-106170000D03*
%TO.P,Right_eye1,6,GND_6*%
%TO.N,GND*%
X162900000Y-108710000D03*
%TO.P,Right_eye1,7,VCC_7*%
%TO.N,VDD*%
X162900000Y-111250000D03*
%TD*%
D10*
%TO.P,Left_eye1,1,RST_1*%
%TO.N,Net-(J2-GPIO27{slash}SDIO_DAT3)*%
X136550000Y-95830000D03*
D11*
%TO.P,Left_eye1,2,CS_2*%
%TO.N,Net-(J2-~{CE0}_SPI0{slash}GPIO08)*%
X136550000Y-98370000D03*
%TO.P,Left_eye1,3,DC_3*%
%TO.N,Net-(J2-GPIO22{slash}SDIO_CLK)*%
X136550000Y-100910000D03*
%TO.P,Left_eye1,4,SDA_4*%
%TO.N,Net-(J2-MOSI_SPI0{slash}GPIO10)*%
X136550000Y-103450000D03*
%TO.P,Left_eye1,5,SCL_5*%
%TO.N,Net-(J2-SCLK_SPI0{slash}GPIO11)*%
X136550000Y-105990000D03*
%TO.P,Left_eye1,6,GND_6*%
%TO.N,GND*%
X136550000Y-108530000D03*
%TO.P,Left_eye1,7,VCC_7*%
%TO.N,VDD*%
X136550000Y-111070000D03*
%TD*%
D10*
%TO.P,Mouth1,1,RST_1*%
%TO.N,Net-(J2-GPIO27{slash}SDIO_DAT3)*%
X157690000Y-92600000D03*
D11*
%TO.P,Mouth1,2,CS_2*%
%TO.N,Net-(J2-~{CE1}_SPI0{slash}GPIO07)*%
X155150000Y-92600000D03*
%TO.P,Mouth1,3,DC_3*%
%TO.N,Net-(J2-GPIO25{slash}SDIO_DAT1)*%
X152610000Y-92600000D03*
%TO.P,Mouth1,4,SDA_4*%
%TO.N,Net-(J2-MOSI_SPI0{slash}GPIO10)*%
X150070000Y-92600000D03*
%TO.P,Mouth1,5,SCL_5*%
%TO.N,Net-(J2-SCLK_SPI0{slash}GPIO11)*%
X147530000Y-92600000D03*
%TO.P,Mouth1,6,GND_6*%
%TO.N,GND*%
X144990000Y-92600000D03*
%TO.P,Mouth1,7,VCC_7*%
%TO.N,VDD*%
X142450000Y-92600000D03*
%TD*%
D12*
%TO.P,REF\u002A\u002A,1*%
%TO.N,N/C*%
X179000000Y-87500000D03*
%TD*%
%TO.P,REF\u002A\u002A,1*%
%TO.N,N/C*%
X121000000Y-110500000D03*
%TD*%
D11*
%TO.P,Left1,1,SCK_1*%
%TO.N,Net-(J2-GPIO18{slash}SPI1_~{CE0}{slash}PCM_CLK{slash}PWM0)*%
X127500000Y-96500000D03*
%TO.P,Left1,2,WS_2*%
%TO.N,Net-(J2-GPIO19{slash}SPI1_MISO{slash}PCM_FS)*%
X124960000Y-96500000D03*
%TO.P,Left1,3,L/R_3*%
%TO.N,VDD*%
X122420000Y-96500000D03*
%TO.P,Left1,4,SD_4*%
%TO.N,Net-(J2-GPIO20{slash}SPI1_MOSI{slash}PCM_DIN{slash}PWM1)*%
X127500000Y-101580000D03*
%TO.P,Left1,5,VDD_5*%
%TO.N,VDD*%
X124960000Y-101580000D03*
%TO.P,Left1,6,GND_6*%
%TO.N,GND*%
X122420000Y-101580000D03*
%TD*%
D13*
%TO.P,U2,*%
%TO.N,*%
X155850000Y-111470000D03*
X143150000Y-111470000D03*
D11*
%TO.P,U2,1,LRC_1*%
%TO.N,Net-(J2-GPIO19{slash}SPI1_MISO{slash}PCM_FS)*%
X157120000Y-97500000D03*
%TO.P,U2,2,BCLK_2*%
%TO.N,Net-(J2-GPIO18{slash}SPI1_~{CE0}{slash}PCM_CLK{slash}PWM0)*%
X154580000Y-97500000D03*
%TO.P,U2,3,DIN_3*%
%TO.N,Net-(J2-GPIO21{slash}SPI1_SCLK{slash}PCM_DOUT)*%
X152040000Y-97500000D03*
%TO.P,U2,4,GAIN_4*%
%TO.N,GND*%
X149500000Y-97500000D03*
%TO.P,U2,5,SD_5*%
%TO.N,unconnected-(U2-SD-Pad5)*%
X146960000Y-97500000D03*
%TO.P,U2,6,GND_6*%
%TO.N,GND*%
X144420000Y-97500000D03*
%TO.P,U2,7,Vin_7*%
%TO.N,VCC*%
X141880000Y-97500000D03*
%TD*%
D12*
%TO.P,REF\u002A\u002A,1*%
%TO.N,N/C*%
X121000000Y-87500000D03*
%TD*%
D11*
%TO.P,Right1,1,SCK_1*%
%TO.N,Net-(J2-GPIO18{slash}SPI1_~{CE0}{slash}PCM_CLK{slash}PWM0)*%
X178040000Y-97000000D03*
%TO.P,Right1,2,WS_2*%
%TO.N,Net-(J2-GPIO19{slash}SPI1_MISO{slash}PCM_FS)*%
X175500000Y-97000000D03*
%TO.P,Right1,3,L/R_3*%
%TO.N,GND*%
X172960000Y-97000000D03*
%TO.P,Right1,4,SD_4*%
%TO.N,Net-(J2-GPIO20{slash}SPI1_MOSI{slash}PCM_DIN{slash}PWM1)*%
X178040000Y-102080000D03*
%TO.P,Right1,5,VDD_5*%
%TO.N,VDD*%
X175500000Y-102080000D03*
%TO.P,Right1,6,GND_6*%
%TO.N,GND*%
X172960000Y-102080000D03*
%TD*%
D12*
%TO.P,REF\u002A\u002A,1*%
%TO.N,N/C*%
X179000000Y-110500000D03*
%TD*%
%TO.N,Net-(J2-GPIO18{slash}SPI1_~{CE0}{slash}PCM_CLK{slash}PWM0)*%
D14*
X129606346Y-96500000D02*
X137130000Y-88976346D01*
X137130000Y-87350000D02*
X138520000Y-85960000D01*
X127500000Y-96500000D02*
X129606346Y-96500000D01*
X137130000Y-88976346D02*
X137130000Y-87350000D01*
%TO.N,Net-(J2-GPIO27{slash}SDIO_DAT3)*%
X162900000Y-96010000D02*
X161710000Y-96010000D01*
X161710000Y-96010000D02*
X161530000Y-95830000D01*
X161530000Y-95830000D02*
X136550000Y-95830000D01*
%TO.N,Net-(J2-GPIO22{slash}SDIO_CLK)*%
X162900000Y-101090000D02*
X136730000Y-101090000D01*
X136730000Y-101090000D02*
X136550000Y-100910000D01*
%TO.N,Net-(J2-MOSI_SPI0{slash}GPIO10)*%
X162900000Y-103630000D02*
X136730000Y-103630000D01*
X135400000Y-102300000D02*
X136550000Y-103450000D01*
X150070000Y-92600000D02*
X150070000Y-92770000D01*
X150300000Y-93000000D02*
X148620000Y-94680000D01*
X150070000Y-92770000D02*
X150300000Y-93000000D01*
X148620000Y-94680000D02*
X135400000Y-94680000D01*
X136730000Y-103630000D02*
X136550000Y-103450000D01*
X135400000Y-94680000D02*
X135400000Y-102300000D01*
%TO.N,Net-(J2-SCLK_SPI0{slash}GPIO11)*%
X154910000Y-89650000D02*
X153760000Y-88500000D01*
X158840000Y-89650000D02*
X154910000Y-89650000D01*
X153760000Y-88500000D02*
X151220000Y-91040000D01*
X164050000Y-105020000D02*
X164050000Y-94860000D01*
X162900000Y-106170000D02*
X164050000Y-105020000D01*
X151220000Y-91040000D02*
X149090000Y-91040000D01*
X164050000Y-94860000D02*
X158840000Y-89650000D01*
X149090000Y-91040000D02*
X147530000Y-92600000D01*
X162720000Y-105990000D02*
X162900000Y-106170000D01*
X136550000Y-105990000D02*
X162720000Y-105990000D01*
%TO.N,Net-(J2-~{CE0}_SPI0{slash}GPIO08)*%
X162900000Y-98550000D02*
X162050000Y-99400000D01*
X162050000Y-99400000D02*
X137580000Y-99400000D01*
X137580000Y-99400000D02*
X136550000Y-98370000D01*
%TO.N,Net-(J2-GPCLK2{slash}GPIO06)*%
X152610000Y-88976346D02*
X152610000Y-88023654D01*
X130000000Y-110500000D02*
X130000000Y-99514315D01*
X130000000Y-99514315D02*
X138874315Y-90640000D01*
X162770000Y-87350000D02*
X163920000Y-88500000D01*
X150946346Y-90640000D02*
X152610000Y-88976346D01*
X153283654Y-87350000D02*
X162770000Y-87350000D01*
X152610000Y-88023654D02*
X153283654Y-87350000D01*
X138874315Y-90640000D02*
X150946346Y-90640000D01*
%TO.N,Net-(D1-A)*%
X165310000Y-87350000D02*
X163920000Y-85960000D01*
X172500000Y-111000000D02*
X165310000Y-103810000D01*
X165310000Y-103810000D02*
X165310000Y-87350000D01*
%TO.N,Net-(J2-GPIO19{slash}SPI1_MISO{slash}PCM_FS)*%
X152610000Y-86436346D02*
X152610000Y-85483654D01*
X150070000Y-88023654D02*
X150743654Y-87350000D01*
X152610000Y-85483654D02*
X153283654Y-84810000D01*
X131298629Y-97650000D02*
X138708630Y-90240000D01*
X150743654Y-87350000D02*
X151696346Y-87350000D01*
X166936346Y-84810000D02*
X167610000Y-85483654D01*
X167610000Y-87110000D02*
X169000000Y-88500000D01*
X150070000Y-88976346D02*
X150070000Y-88023654D01*
X175500000Y-97000000D02*
X169000000Y-90500000D01*
X138708630Y-90240000D02*
X148806346Y-90240000D01*
X124960000Y-96500000D02*
X126110000Y-97650000D01*
X153283654Y-84810000D02*
X166936346Y-84810000D01*
X169000000Y-90500000D02*
X169000000Y-88500000D01*
X151696346Y-87350000D02*
X152610000Y-86436346D01*
X167610000Y-85483654D02*
X167610000Y-87110000D01*
X126110000Y-97650000D02*
X131298629Y-97650000D01*
X148806346Y-90240000D02*
X150070000Y-88976346D01*
%TO.N,Net-(J2-GPIO20{slash}SPI1_MOSI{slash}PCM_DIN{slash}PWM1)*%
X127500000Y-101580000D02*
X128850000Y-102930000D01*
X131150000Y-111650000D02*
X135480000Y-107320000D01*
X178040000Y-102080000D02*
X179190000Y-100930000D01*
X179190000Y-100930000D02*
X179190000Y-95236346D01*
X179190000Y-95236346D02*
X172690000Y-88736346D01*
X178040000Y-107086346D02*
X178040000Y-102080000D01*
X172976346Y-112150000D02*
X178040000Y-107086346D01*
X135480000Y-107320000D02*
X163376346Y-107320000D01*
X163376346Y-107320000D02*
X168206346Y-112150000D01*
X172690000Y-88736346D02*
X172690000Y-87110000D01*
X172690000Y-87110000D02*
X171540000Y-85960000D01*
X128850000Y-111650000D02*
X131150000Y-111650000D01*
X168206346Y-112150000D02*
X172976346Y-112150000D01*
X128850000Y-102930000D02*
X128850000Y-111650000D01*
%TD*%
M02*
