%TF.GenerationSoftware,KiCad,Pcbnew,10.0.3-2.fc44*%
%TF.CreationDate,2026-06-02T16:33:18-06:00*%
%TF.ProjectId,lego-maya,6c65676f-2d6d-4617-9961-2e6b69636164,rev?*%
%TF.SameCoordinates,Original*%
%TF.FileFunction,Soldermask,Bot*%
%TF.FilePolarity,Negative*%
%FSLAX46Y46*%
G04 Gerber Fmt 4.6, Leading zero omitted, Abs format (unit mm)*
G04 Created by KiCad (PCBNEW 10.0.3-2.fc44) date 2026-06-02 16:33:18*
%MOMM*%
%LPD*%
G01*
G04 APERTURE LIST*
%ADD10R,1.700000X1.700000*%
%ADD11C,1.700000*%
%ADD12C,4.700000*%
%ADD13C,2.794000*%
G04 APERTURE END LIST*
D10*
%TO.C,J2*%
X125820000Y-88500000D03*
D11*
X125820000Y-85960000D03*
X128360000Y-88500000D03*
X128360000Y-85960000D03*
X130900000Y-88500000D03*
X130900000Y-85960000D03*
X133440000Y-88500000D03*
X133440000Y-85960000D03*
X135980000Y-88500000D03*
X135980000Y-85960000D03*
X138520000Y-88500000D03*
X138520000Y-85960000D03*
X141060000Y-88500000D03*
X141060000Y-85960000D03*
X143600000Y-88500000D03*
X143600000Y-85960000D03*
X146140000Y-88500000D03*
X146140000Y-85960000D03*
X148680000Y-88500000D03*
X148680000Y-85960000D03*
X151220000Y-88500000D03*
X151220000Y-85960000D03*
X153760000Y-88500000D03*
X153760000Y-85960000D03*
X156300000Y-88500000D03*
X156300000Y-85960000D03*
X158840000Y-88500000D03*
X158840000Y-85960000D03*
X161380000Y-88500000D03*
X161380000Y-85960000D03*
X163920000Y-88500000D03*
X163920000Y-85960000D03*
X166460000Y-88500000D03*
X166460000Y-85960000D03*
X169000000Y-88500000D03*
X169000000Y-85960000D03*
X171540000Y-88500000D03*
X171540000Y-85960000D03*
X174080000Y-88500000D03*
X174080000Y-85960000D03*
%TD*%
D10*
%TO.C,SW1*%
X130000000Y-110500000D03*
D11*
X127460000Y-110500000D03*
%TD*%
D10*
%TO.C,D1*%
X169960000Y-111000000D03*
D11*
X172500000Y-111000000D03*
%TD*%
D10*
%TO.C,Right_eye1*%
X162900000Y-96010000D03*
D11*
X162900000Y-98550000D03*
X162900000Y-101090000D03*
X162900000Y-103630000D03*
X162900000Y-106170000D03*
X162900000Y-108710000D03*
X162900000Y-111250000D03*
%TD*%
D10*
%TO.C,Left_eye1*%
X136550000Y-95830000D03*
D11*
X136550000Y-98370000D03*
X136550000Y-100910000D03*
X136550000Y-103450000D03*
X136550000Y-105990000D03*
X136550000Y-108530000D03*
X136550000Y-111070000D03*
%TD*%
D10*
%TO.C,Mouth1*%
X157690000Y-92600000D03*
D11*
X155150000Y-92600000D03*
X152610000Y-92600000D03*
X150070000Y-92600000D03*
X147530000Y-92600000D03*
X144990000Y-92600000D03*
X142450000Y-92600000D03*
%TD*%
D12*
%TO.C,REF\u002A\u002A*%
X179000000Y-87500000D03*
%TD*%
%TO.C,REF\u002A\u002A*%
X121000000Y-110500000D03*
%TD*%
D11*
%TO.C,Left1*%
X127500000Y-96500000D03*
X124960000Y-96500000D03*
X122420000Y-96500000D03*
X127500000Y-101580000D03*
X124960000Y-101580000D03*
X122420000Y-101580000D03*
%TD*%
D13*
%TO.C,U2*%
X155850000Y-111470000D03*
X143150000Y-111470000D03*
D11*
X157120000Y-97500000D03*
X154580000Y-97500000D03*
X152040000Y-97500000D03*
X149500000Y-97500000D03*
X146960000Y-97500000D03*
X144420000Y-97500000D03*
X141880000Y-97500000D03*
%TD*%
D12*
%TO.C,REF\u002A\u002A*%
X121000000Y-87500000D03*
%TD*%
D11*
%TO.C,Right1*%
X178040000Y-97000000D03*
X175500000Y-97000000D03*
X172960000Y-97000000D03*
X178040000Y-102080000D03*
X175500000Y-102080000D03*
X172960000Y-102080000D03*
%TD*%
D12*
%TO.C,REF\u002A\u002A*%
X179000000Y-110500000D03*
%TD*%
M02*
