%TF.GenerationSoftware,KiCad,Pcbnew,10.0.3-2.fc44*%
%TF.CreationDate,2026-06-02T16:33:35-06:00*%
%TF.ProjectId,lego-maya,6c65676f-2d6d-4617-9961-2e6b69636164,rev?*%
%TF.SameCoordinates,Original*%
%TF.FileFunction,Drillmap*%
%TF.FilePolarity,Positive*%
%FSLAX45Y45*%
G04 Gerber Fmt 4.5, Leading zero omitted, Abs format (unit mm)*
G04 Created by KiCad (PCBNEW 10.0.3-2.fc44) date 2026-06-02 16:33:35*
%MOMM*%
%LPD*%
G01*
G04 APERTURE LIST*
%ADD10C,0.050000*%
%ADD11C,0.200000*%
%ADD12C,0.100000*%
%ADD13C,0.254000*%
%ADD14C,0.270000*%
G04 APERTURE END LIST*
D10*
X11750000Y-8700000D02*
X11750000Y-8700000D01*
G75*
G02*
X12050000Y-8400000I300000J0D01*
G01*
X17950000Y-8400000D01*
G75*
G02*
X18250000Y-8700000I0J-300000D01*
G01*
X18250000Y-11100000D01*
G75*
G02*
X17950000Y-11400000I-300000J0D01*
G01*
X12050000Y-11400000D01*
G75*
G02*
X11750000Y-11100000I0J300000D01*
G01*
X11750000Y-8700000D01*
D11*
D12*
X12192000Y-9600000D02*
X12292000Y-9700000D01*
X12292000Y-9600000D02*
X12192000Y-9700000D01*
X12192000Y-10108000D02*
X12292000Y-10208000D01*
X12292000Y-10108000D02*
X12192000Y-10208000D01*
X12446000Y-9600000D02*
X12546000Y-9700000D01*
X12546000Y-9600000D02*
X12446000Y-9700000D01*
X12446000Y-10108000D02*
X12546000Y-10208000D01*
X12546000Y-10108000D02*
X12446000Y-10208000D01*
X12532000Y-8546000D02*
X12632000Y-8646000D01*
X12632000Y-8546000D02*
X12532000Y-8646000D01*
X12532000Y-8800000D02*
X12632000Y-8900000D01*
X12632000Y-8800000D02*
X12532000Y-8900000D01*
X12696000Y-11000000D02*
X12796000Y-11100000D01*
X12796000Y-11000000D02*
X12696000Y-11100000D01*
X12700000Y-9600000D02*
X12800000Y-9700000D01*
X12800000Y-9600000D02*
X12700000Y-9700000D01*
X12700000Y-10108000D02*
X12800000Y-10208000D01*
X12800000Y-10108000D02*
X12700000Y-10208000D01*
X12786000Y-8546000D02*
X12886000Y-8646000D01*
X12886000Y-8546000D02*
X12786000Y-8646000D01*
X12786000Y-8800000D02*
X12886000Y-8900000D01*
X12886000Y-8800000D02*
X12786000Y-8900000D01*
X12950000Y-11000000D02*
X13050000Y-11100000D01*
X13050000Y-11000000D02*
X12950000Y-11100000D01*
X13040000Y-8546000D02*
X13140000Y-8646000D01*
X13140000Y-8546000D02*
X13040000Y-8646000D01*
X13040000Y-8800000D02*
X13140000Y-8900000D01*
X13140000Y-8800000D02*
X13040000Y-8900000D01*
X13294000Y-8546000D02*
X13394000Y-8646000D01*
X13394000Y-8546000D02*
X13294000Y-8646000D01*
X13294000Y-8800000D02*
X13394000Y-8900000D01*
X13394000Y-8800000D02*
X13294000Y-8900000D01*
X13548000Y-8546000D02*
X13648000Y-8646000D01*
X13648000Y-8546000D02*
X13548000Y-8646000D01*
X13548000Y-8800000D02*
X13648000Y-8900000D01*
X13648000Y-8800000D02*
X13548000Y-8900000D01*
X13605000Y-9533000D02*
X13705000Y-9633000D01*
X13705000Y-9533000D02*
X13605000Y-9633000D01*
X13605000Y-9787000D02*
X13705000Y-9887000D01*
X13705000Y-9787000D02*
X13605000Y-9887000D01*
X13605000Y-10041000D02*
X13705000Y-10141000D01*
X13705000Y-10041000D02*
X13605000Y-10141000D01*
X13605000Y-10295000D02*
X13705000Y-10395000D01*
X13705000Y-10295000D02*
X13605000Y-10395000D01*
X13605000Y-10549000D02*
X13705000Y-10649000D01*
X13705000Y-10549000D02*
X13605000Y-10649000D01*
X13605000Y-10803000D02*
X13705000Y-10903000D01*
X13705000Y-10803000D02*
X13605000Y-10903000D01*
X13605000Y-11057000D02*
X13705000Y-11157000D01*
X13705000Y-11057000D02*
X13605000Y-11157000D01*
X13802000Y-8546000D02*
X13902000Y-8646000D01*
X13902000Y-8546000D02*
X13802000Y-8646000D01*
X13802000Y-8800000D02*
X13902000Y-8900000D01*
X13902000Y-8800000D02*
X13802000Y-8900000D01*
X14056000Y-8546000D02*
X14156000Y-8646000D01*
X14156000Y-8546000D02*
X14056000Y-8646000D01*
X14056000Y-8800000D02*
X14156000Y-8900000D01*
X14156000Y-8800000D02*
X14056000Y-8900000D01*
X14138000Y-9700000D02*
X14238000Y-9800000D01*
X14238000Y-9700000D02*
X14138000Y-9800000D01*
X14195000Y-9210000D02*
X14295000Y-9310000D01*
X14295000Y-9210000D02*
X14195000Y-9310000D01*
X14310000Y-8546000D02*
X14410000Y-8646000D01*
X14410000Y-8546000D02*
X14310000Y-8646000D01*
X14310000Y-8800000D02*
X14410000Y-8900000D01*
X14410000Y-8800000D02*
X14310000Y-8900000D01*
X14392000Y-9700000D02*
X14492000Y-9800000D01*
X14492000Y-9700000D02*
X14392000Y-9800000D01*
X14449000Y-9210000D02*
X14549000Y-9310000D01*
X14549000Y-9210000D02*
X14449000Y-9310000D01*
X14564000Y-8546000D02*
X14664000Y-8646000D01*
X14664000Y-8546000D02*
X14564000Y-8646000D01*
X14564000Y-8800000D02*
X14664000Y-8900000D01*
X14664000Y-8800000D02*
X14564000Y-8900000D01*
X14646000Y-9700000D02*
X14746000Y-9800000D01*
X14746000Y-9700000D02*
X14646000Y-9800000D01*
X14703000Y-9210000D02*
X14803000Y-9310000D01*
X14803000Y-9210000D02*
X14703000Y-9310000D01*
X14818000Y-8546000D02*
X14918000Y-8646000D01*
X14918000Y-8546000D02*
X14818000Y-8646000D01*
X14818000Y-8800000D02*
X14918000Y-8900000D01*
X14918000Y-8800000D02*
X14818000Y-8900000D01*
X14900000Y-9700000D02*
X15000000Y-9800000D01*
X15000000Y-9700000D02*
X14900000Y-9800000D01*
X14957000Y-9210000D02*
X15057000Y-9310000D01*
X15057000Y-9210000D02*
X14957000Y-9310000D01*
X15072000Y-8546000D02*
X15172000Y-8646000D01*
X15172000Y-8546000D02*
X15072000Y-8646000D01*
X15072000Y-8800000D02*
X15172000Y-8900000D01*
X15172000Y-8800000D02*
X15072000Y-8900000D01*
X15154000Y-9700000D02*
X15254000Y-9800000D01*
X15254000Y-9700000D02*
X15154000Y-9800000D01*
X15211000Y-9210000D02*
X15311000Y-9310000D01*
X15311000Y-9210000D02*
X15211000Y-9310000D01*
X15326000Y-8546000D02*
X15426000Y-8646000D01*
X15426000Y-8546000D02*
X15326000Y-8646000D01*
X15326000Y-8800000D02*
X15426000Y-8900000D01*
X15426000Y-8800000D02*
X15326000Y-8900000D01*
X15408000Y-9700000D02*
X15508000Y-9800000D01*
X15508000Y-9700000D02*
X15408000Y-9800000D01*
X15465000Y-9210000D02*
X15565000Y-9310000D01*
X15565000Y-9210000D02*
X15465000Y-9310000D01*
X15580000Y-8546000D02*
X15680000Y-8646000D01*
X15680000Y-8546000D02*
X15580000Y-8646000D01*
X15580000Y-8800000D02*
X15680000Y-8900000D01*
X15680000Y-8800000D02*
X15580000Y-8900000D01*
X15662000Y-9700000D02*
X15762000Y-9800000D01*
X15762000Y-9700000D02*
X15662000Y-9800000D01*
X15719000Y-9210000D02*
X15819000Y-9310000D01*
X15819000Y-9210000D02*
X15719000Y-9310000D01*
X15834000Y-8546000D02*
X15934000Y-8646000D01*
X15934000Y-8546000D02*
X15834000Y-8646000D01*
X15834000Y-8800000D02*
X15934000Y-8900000D01*
X15934000Y-8800000D02*
X15834000Y-8900000D01*
X16088000Y-8546000D02*
X16188000Y-8646000D01*
X16188000Y-8546000D02*
X16088000Y-8646000D01*
X16088000Y-8800000D02*
X16188000Y-8900000D01*
X16188000Y-8800000D02*
X16088000Y-8900000D01*
X16240000Y-9551000D02*
X16340000Y-9651000D01*
X16340000Y-9551000D02*
X16240000Y-9651000D01*
X16240000Y-9805000D02*
X16340000Y-9905000D01*
X16340000Y-9805000D02*
X16240000Y-9905000D01*
X16240000Y-10059000D02*
X16340000Y-10159000D01*
X16340000Y-10059000D02*
X16240000Y-10159000D01*
X16240000Y-10313000D02*
X16340000Y-10413000D01*
X16340000Y-10313000D02*
X16240000Y-10413000D01*
X16240000Y-10567000D02*
X16340000Y-10667000D01*
X16340000Y-10567000D02*
X16240000Y-10667000D01*
X16240000Y-10821000D02*
X16340000Y-10921000D01*
X16340000Y-10821000D02*
X16240000Y-10921000D01*
X16240000Y-11075000D02*
X16340000Y-11175000D01*
X16340000Y-11075000D02*
X16240000Y-11175000D01*
X16342000Y-8546000D02*
X16442000Y-8646000D01*
X16442000Y-8546000D02*
X16342000Y-8646000D01*
X16342000Y-8800000D02*
X16442000Y-8900000D01*
X16442000Y-8800000D02*
X16342000Y-8900000D01*
X16596000Y-8546000D02*
X16696000Y-8646000D01*
X16696000Y-8546000D02*
X16596000Y-8646000D01*
X16596000Y-8800000D02*
X16696000Y-8900000D01*
X16696000Y-8800000D02*
X16596000Y-8900000D01*
X16850000Y-8546000D02*
X16950000Y-8646000D01*
X16950000Y-8546000D02*
X16850000Y-8646000D01*
X16850000Y-8800000D02*
X16950000Y-8900000D01*
X16950000Y-8800000D02*
X16850000Y-8900000D01*
X16946000Y-11050000D02*
X17046000Y-11150000D01*
X17046000Y-11050000D02*
X16946000Y-11150000D01*
X17104000Y-8546000D02*
X17204000Y-8646000D01*
X17204000Y-8546000D02*
X17104000Y-8646000D01*
X17104000Y-8800000D02*
X17204000Y-8900000D01*
X17204000Y-8800000D02*
X17104000Y-8900000D01*
X17200000Y-11050000D02*
X17300000Y-11150000D01*
X17300000Y-11050000D02*
X17200000Y-11150000D01*
X17246000Y-9650000D02*
X17346000Y-9750000D01*
X17346000Y-9650000D02*
X17246000Y-9750000D01*
X17246000Y-10158000D02*
X17346000Y-10258000D01*
X17346000Y-10158000D02*
X17246000Y-10258000D01*
X17358000Y-8546000D02*
X17458000Y-8646000D01*
X17458000Y-8546000D02*
X17358000Y-8646000D01*
X17358000Y-8800000D02*
X17458000Y-8900000D01*
X17458000Y-8800000D02*
X17358000Y-8900000D01*
X17500000Y-9650000D02*
X17600000Y-9750000D01*
X17600000Y-9650000D02*
X17500000Y-9750000D01*
X17500000Y-10158000D02*
X17600000Y-10258000D01*
X17600000Y-10158000D02*
X17500000Y-10258000D01*
X17754000Y-9650000D02*
X17854000Y-9750000D01*
X17854000Y-9650000D02*
X17754000Y-9750000D01*
X17754000Y-10158000D02*
X17854000Y-10258000D01*
X17854000Y-10158000D02*
X17754000Y-10258000D01*
D13*
X14442000Y-11147000D02*
G75*
G02*
X14188000Y-11147000I-127000J0D01*
G01*
X14188000Y-11147000D02*
G75*
G02*
X14442000Y-11147000I127000J0D01*
G01*
X15712000Y-11147000D02*
G75*
G02*
X15458000Y-11147000I-127000J0D01*
G01*
X15458000Y-11147000D02*
G75*
G02*
X15712000Y-11147000I127000J0D01*
G01*
D14*
X12100000Y-8615000D02*
X12100000Y-8885000D01*
X11965000Y-8750000D02*
X12235000Y-8750000D01*
X12100000Y-10915000D02*
X12100000Y-11185000D01*
X11965000Y-11050000D02*
X12235000Y-11050000D01*
X17900000Y-8615000D02*
X17900000Y-8885000D01*
X17765000Y-8750000D02*
X18035000Y-8750000D01*
X17900000Y-10915000D02*
X17900000Y-11185000D01*
X17765000Y-11050000D02*
X18035000Y-11050000D01*
D11*
X12008277Y-11713984D02*
X12008277Y-11513984D01*
X12008277Y-11513984D02*
X12055896Y-11513984D01*
X12055896Y-11513984D02*
X12084467Y-11523508D01*
X12084467Y-11523508D02*
X12103515Y-11542555D01*
X12103515Y-11542555D02*
X12113039Y-11561603D01*
X12113039Y-11561603D02*
X12122562Y-11599698D01*
X12122562Y-11599698D02*
X12122562Y-11628269D01*
X12122562Y-11628269D02*
X12113039Y-11666365D01*
X12113039Y-11666365D02*
X12103515Y-11685412D01*
X12103515Y-11685412D02*
X12084467Y-11704460D01*
X12084467Y-11704460D02*
X12055896Y-11713984D01*
X12055896Y-11713984D02*
X12008277Y-11713984D01*
X12208277Y-11713984D02*
X12208277Y-11580650D01*
X12208277Y-11618746D02*
X12217801Y-11599698D01*
X12217801Y-11599698D02*
X12227324Y-11590174D01*
X12227324Y-11590174D02*
X12246372Y-11580650D01*
X12246372Y-11580650D02*
X12265420Y-11580650D01*
X12332086Y-11713984D02*
X12332086Y-11580650D01*
X12332086Y-11513984D02*
X12322562Y-11523508D01*
X12322562Y-11523508D02*
X12332086Y-11533031D01*
X12332086Y-11533031D02*
X12341610Y-11523508D01*
X12341610Y-11523508D02*
X12332086Y-11513984D01*
X12332086Y-11513984D02*
X12332086Y-11533031D01*
X12455896Y-11713984D02*
X12436848Y-11704460D01*
X12436848Y-11704460D02*
X12427324Y-11685412D01*
X12427324Y-11685412D02*
X12427324Y-11513984D01*
X12560658Y-11713984D02*
X12541610Y-11704460D01*
X12541610Y-11704460D02*
X12532086Y-11685412D01*
X12532086Y-11685412D02*
X12532086Y-11513984D01*
X12789229Y-11713984D02*
X12789229Y-11513984D01*
X12789229Y-11513984D02*
X12855896Y-11656841D01*
X12855896Y-11656841D02*
X12922562Y-11513984D01*
X12922562Y-11513984D02*
X12922562Y-11713984D01*
X13103515Y-11713984D02*
X13103515Y-11609222D01*
X13103515Y-11609222D02*
X13093991Y-11590174D01*
X13093991Y-11590174D02*
X13074943Y-11580650D01*
X13074943Y-11580650D02*
X13036848Y-11580650D01*
X13036848Y-11580650D02*
X13017801Y-11590174D01*
X13103515Y-11704460D02*
X13084467Y-11713984D01*
X13084467Y-11713984D02*
X13036848Y-11713984D01*
X13036848Y-11713984D02*
X13017801Y-11704460D01*
X13017801Y-11704460D02*
X13008277Y-11685412D01*
X13008277Y-11685412D02*
X13008277Y-11666365D01*
X13008277Y-11666365D02*
X13017801Y-11647317D01*
X13017801Y-11647317D02*
X13036848Y-11637793D01*
X13036848Y-11637793D02*
X13084467Y-11637793D01*
X13084467Y-11637793D02*
X13103515Y-11628269D01*
X13198753Y-11580650D02*
X13198753Y-11780650D01*
X13198753Y-11590174D02*
X13217801Y-11580650D01*
X13217801Y-11580650D02*
X13255896Y-11580650D01*
X13255896Y-11580650D02*
X13274943Y-11590174D01*
X13274943Y-11590174D02*
X13284467Y-11599698D01*
X13284467Y-11599698D02*
X13293991Y-11618746D01*
X13293991Y-11618746D02*
X13293991Y-11675888D01*
X13293991Y-11675888D02*
X13284467Y-11694936D01*
X13284467Y-11694936D02*
X13274943Y-11704460D01*
X13274943Y-11704460D02*
X13255896Y-11713984D01*
X13255896Y-11713984D02*
X13217801Y-11713984D01*
X13217801Y-11713984D02*
X13198753Y-11704460D01*
X13379705Y-11694936D02*
X13389229Y-11704460D01*
X13389229Y-11704460D02*
X13379705Y-11713984D01*
X13379705Y-11713984D02*
X13370182Y-11704460D01*
X13370182Y-11704460D02*
X13379705Y-11694936D01*
X13379705Y-11694936D02*
X13379705Y-11713984D01*
X13379705Y-11590174D02*
X13389229Y-11599698D01*
X13389229Y-11599698D02*
X13379705Y-11609222D01*
X13379705Y-11609222D02*
X13370182Y-11599698D01*
X13370182Y-11599698D02*
X13379705Y-11590174D01*
X13379705Y-11590174D02*
X13379705Y-11609222D01*
D12*
X11647500Y-11992500D02*
X11747500Y-12092500D01*
X11747500Y-11992500D02*
X11647500Y-12092500D01*
D11*
X12113039Y-12133984D02*
X11998753Y-12133984D01*
X12055896Y-12133984D02*
X12055896Y-11933984D01*
X12055896Y-11933984D02*
X12036848Y-11962555D01*
X12036848Y-11962555D02*
X12017801Y-11981603D01*
X12017801Y-11981603D02*
X11998753Y-11991127D01*
X12198753Y-12114936D02*
X12208277Y-12124460D01*
X12208277Y-12124460D02*
X12198753Y-12133984D01*
X12198753Y-12133984D02*
X12189229Y-12124460D01*
X12189229Y-12124460D02*
X12198753Y-12114936D01*
X12198753Y-12114936D02*
X12198753Y-12133984D01*
X12332086Y-11933984D02*
X12351134Y-11933984D01*
X12351134Y-11933984D02*
X12370182Y-11943508D01*
X12370182Y-11943508D02*
X12379705Y-11953031D01*
X12379705Y-11953031D02*
X12389229Y-11972079D01*
X12389229Y-11972079D02*
X12398753Y-12010174D01*
X12398753Y-12010174D02*
X12398753Y-12057793D01*
X12398753Y-12057793D02*
X12389229Y-12095888D01*
X12389229Y-12095888D02*
X12379705Y-12114936D01*
X12379705Y-12114936D02*
X12370182Y-12124460D01*
X12370182Y-12124460D02*
X12351134Y-12133984D01*
X12351134Y-12133984D02*
X12332086Y-12133984D01*
X12332086Y-12133984D02*
X12313039Y-12124460D01*
X12313039Y-12124460D02*
X12303515Y-12114936D01*
X12303515Y-12114936D02*
X12293991Y-12095888D01*
X12293991Y-12095888D02*
X12284467Y-12057793D01*
X12284467Y-12057793D02*
X12284467Y-12010174D01*
X12284467Y-12010174D02*
X12293991Y-11972079D01*
X12293991Y-11972079D02*
X12303515Y-11953031D01*
X12303515Y-11953031D02*
X12313039Y-11943508D01*
X12313039Y-11943508D02*
X12332086Y-11933984D01*
X12522562Y-11933984D02*
X12541610Y-11933984D01*
X12541610Y-11933984D02*
X12560658Y-11943508D01*
X12560658Y-11943508D02*
X12570182Y-11953031D01*
X12570182Y-11953031D02*
X12579705Y-11972079D01*
X12579705Y-11972079D02*
X12589229Y-12010174D01*
X12589229Y-12010174D02*
X12589229Y-12057793D01*
X12589229Y-12057793D02*
X12579705Y-12095888D01*
X12579705Y-12095888D02*
X12570182Y-12114936D01*
X12570182Y-12114936D02*
X12560658Y-12124460D01*
X12560658Y-12124460D02*
X12541610Y-12133984D01*
X12541610Y-12133984D02*
X12522562Y-12133984D01*
X12522562Y-12133984D02*
X12503515Y-12124460D01*
X12503515Y-12124460D02*
X12493991Y-12114936D01*
X12493991Y-12114936D02*
X12484467Y-12095888D01*
X12484467Y-12095888D02*
X12474943Y-12057793D01*
X12474943Y-12057793D02*
X12474943Y-12010174D01*
X12474943Y-12010174D02*
X12484467Y-11972079D01*
X12484467Y-11972079D02*
X12493991Y-11953031D01*
X12493991Y-11953031D02*
X12503515Y-11943508D01*
X12503515Y-11943508D02*
X12522562Y-11933984D01*
X12713039Y-11933984D02*
X12732086Y-11933984D01*
X12732086Y-11933984D02*
X12751134Y-11943508D01*
X12751134Y-11943508D02*
X12760658Y-11953031D01*
X12760658Y-11953031D02*
X12770182Y-11972079D01*
X12770182Y-11972079D02*
X12779705Y-12010174D01*
X12779705Y-12010174D02*
X12779705Y-12057793D01*
X12779705Y-12057793D02*
X12770182Y-12095888D01*
X12770182Y-12095888D02*
X12760658Y-12114936D01*
X12760658Y-12114936D02*
X12751134Y-12124460D01*
X12751134Y-12124460D02*
X12732086Y-12133984D01*
X12732086Y-12133984D02*
X12713039Y-12133984D01*
X12713039Y-12133984D02*
X12693991Y-12124460D01*
X12693991Y-12124460D02*
X12684467Y-12114936D01*
X12684467Y-12114936D02*
X12674943Y-12095888D01*
X12674943Y-12095888D02*
X12665420Y-12057793D01*
X12665420Y-12057793D02*
X12665420Y-12010174D01*
X12665420Y-12010174D02*
X12674943Y-11972079D01*
X12674943Y-11972079D02*
X12684467Y-11953031D01*
X12684467Y-11953031D02*
X12693991Y-11943508D01*
X12693991Y-11943508D02*
X12713039Y-11933984D01*
X12865420Y-12133984D02*
X12865420Y-12000650D01*
X12865420Y-12019698D02*
X12874943Y-12010174D01*
X12874943Y-12010174D02*
X12893991Y-12000650D01*
X12893991Y-12000650D02*
X12922563Y-12000650D01*
X12922563Y-12000650D02*
X12941610Y-12010174D01*
X12941610Y-12010174D02*
X12951134Y-12029222D01*
X12951134Y-12029222D02*
X12951134Y-12133984D01*
X12951134Y-12029222D02*
X12960658Y-12010174D01*
X12960658Y-12010174D02*
X12979705Y-12000650D01*
X12979705Y-12000650D02*
X13008277Y-12000650D01*
X13008277Y-12000650D02*
X13027324Y-12010174D01*
X13027324Y-12010174D02*
X13036848Y-12029222D01*
X13036848Y-12029222D02*
X13036848Y-12133984D01*
X13132086Y-12133984D02*
X13132086Y-12000650D01*
X13132086Y-12019698D02*
X13141610Y-12010174D01*
X13141610Y-12010174D02*
X13160658Y-12000650D01*
X13160658Y-12000650D02*
X13189229Y-12000650D01*
X13189229Y-12000650D02*
X13208277Y-12010174D01*
X13208277Y-12010174D02*
X13217801Y-12029222D01*
X13217801Y-12029222D02*
X13217801Y-12133984D01*
X13217801Y-12029222D02*
X13227324Y-12010174D01*
X13227324Y-12010174D02*
X13246372Y-12000650D01*
X13246372Y-12000650D02*
X13274943Y-12000650D01*
X13274943Y-12000650D02*
X13293991Y-12010174D01*
X13293991Y-12010174D02*
X13303515Y-12029222D01*
X13303515Y-12029222D02*
X13303515Y-12133984D01*
X13693991Y-11924460D02*
X13522563Y-12181603D01*
X13951134Y-11933984D02*
X13970182Y-11933984D01*
X13970182Y-11933984D02*
X13989229Y-11943508D01*
X13989229Y-11943508D02*
X13998753Y-11953031D01*
X13998753Y-11953031D02*
X14008277Y-11972079D01*
X14008277Y-11972079D02*
X14017801Y-12010174D01*
X14017801Y-12010174D02*
X14017801Y-12057793D01*
X14017801Y-12057793D02*
X14008277Y-12095888D01*
X14008277Y-12095888D02*
X13998753Y-12114936D01*
X13998753Y-12114936D02*
X13989229Y-12124460D01*
X13989229Y-12124460D02*
X13970182Y-12133984D01*
X13970182Y-12133984D02*
X13951134Y-12133984D01*
X13951134Y-12133984D02*
X13932086Y-12124460D01*
X13932086Y-12124460D02*
X13922563Y-12114936D01*
X13922563Y-12114936D02*
X13913039Y-12095888D01*
X13913039Y-12095888D02*
X13903515Y-12057793D01*
X13903515Y-12057793D02*
X13903515Y-12010174D01*
X13903515Y-12010174D02*
X13913039Y-11972079D01*
X13913039Y-11972079D02*
X13922563Y-11953031D01*
X13922563Y-11953031D02*
X13932086Y-11943508D01*
X13932086Y-11943508D02*
X13951134Y-11933984D01*
X14103515Y-12114936D02*
X14113039Y-12124460D01*
X14113039Y-12124460D02*
X14103515Y-12133984D01*
X14103515Y-12133984D02*
X14093991Y-12124460D01*
X14093991Y-12124460D02*
X14103515Y-12114936D01*
X14103515Y-12114936D02*
X14103515Y-12133984D01*
X14236848Y-11933984D02*
X14255896Y-11933984D01*
X14255896Y-11933984D02*
X14274944Y-11943508D01*
X14274944Y-11943508D02*
X14284467Y-11953031D01*
X14284467Y-11953031D02*
X14293991Y-11972079D01*
X14293991Y-11972079D02*
X14303515Y-12010174D01*
X14303515Y-12010174D02*
X14303515Y-12057793D01*
X14303515Y-12057793D02*
X14293991Y-12095888D01*
X14293991Y-12095888D02*
X14284467Y-12114936D01*
X14284467Y-12114936D02*
X14274944Y-12124460D01*
X14274944Y-12124460D02*
X14255896Y-12133984D01*
X14255896Y-12133984D02*
X14236848Y-12133984D01*
X14236848Y-12133984D02*
X14217801Y-12124460D01*
X14217801Y-12124460D02*
X14208277Y-12114936D01*
X14208277Y-12114936D02*
X14198753Y-12095888D01*
X14198753Y-12095888D02*
X14189229Y-12057793D01*
X14189229Y-12057793D02*
X14189229Y-12010174D01*
X14189229Y-12010174D02*
X14198753Y-11972079D01*
X14198753Y-11972079D02*
X14208277Y-11953031D01*
X14208277Y-11953031D02*
X14217801Y-11943508D01*
X14217801Y-11943508D02*
X14236848Y-11933984D01*
X14370182Y-11933984D02*
X14493991Y-11933984D01*
X14493991Y-11933984D02*
X14427325Y-12010174D01*
X14427325Y-12010174D02*
X14455896Y-12010174D01*
X14455896Y-12010174D02*
X14474944Y-12019698D01*
X14474944Y-12019698D02*
X14484467Y-12029222D01*
X14484467Y-12029222D02*
X14493991Y-12048269D01*
X14493991Y-12048269D02*
X14493991Y-12095888D01*
X14493991Y-12095888D02*
X14484467Y-12114936D01*
X14484467Y-12114936D02*
X14474944Y-12124460D01*
X14474944Y-12124460D02*
X14455896Y-12133984D01*
X14455896Y-12133984D02*
X14398753Y-12133984D01*
X14398753Y-12133984D02*
X14379706Y-12124460D01*
X14379706Y-12124460D02*
X14370182Y-12114936D01*
X14589229Y-12133984D02*
X14627325Y-12133984D01*
X14627325Y-12133984D02*
X14646372Y-12124460D01*
X14646372Y-12124460D02*
X14655896Y-12114936D01*
X14655896Y-12114936D02*
X14674944Y-12086365D01*
X14674944Y-12086365D02*
X14684467Y-12048269D01*
X14684467Y-12048269D02*
X14684467Y-11972079D01*
X14684467Y-11972079D02*
X14674944Y-11953031D01*
X14674944Y-11953031D02*
X14665420Y-11943508D01*
X14665420Y-11943508D02*
X14646372Y-11933984D01*
X14646372Y-11933984D02*
X14608277Y-11933984D01*
X14608277Y-11933984D02*
X14589229Y-11943508D01*
X14589229Y-11943508D02*
X14579706Y-11953031D01*
X14579706Y-11953031D02*
X14570182Y-11972079D01*
X14570182Y-11972079D02*
X14570182Y-12019698D01*
X14570182Y-12019698D02*
X14579706Y-12038746D01*
X14579706Y-12038746D02*
X14589229Y-12048269D01*
X14589229Y-12048269D02*
X14608277Y-12057793D01*
X14608277Y-12057793D02*
X14646372Y-12057793D01*
X14646372Y-12057793D02*
X14665420Y-12048269D01*
X14665420Y-12048269D02*
X14674944Y-12038746D01*
X14674944Y-12038746D02*
X14684467Y-12019698D01*
X14855896Y-12000650D02*
X14855896Y-12133984D01*
X14808277Y-11924460D02*
X14760658Y-12067317D01*
X14760658Y-12067317D02*
X14884467Y-12067317D01*
X14951134Y-11933984D02*
X14951134Y-11972079D01*
X15027325Y-11933984D02*
X15027325Y-11972079D01*
X15322563Y-12210174D02*
X15313039Y-12200650D01*
X15313039Y-12200650D02*
X15293991Y-12172079D01*
X15293991Y-12172079D02*
X15284468Y-12153031D01*
X15284468Y-12153031D02*
X15274944Y-12124460D01*
X15274944Y-12124460D02*
X15265420Y-12076841D01*
X15265420Y-12076841D02*
X15265420Y-12038746D01*
X15265420Y-12038746D02*
X15274944Y-11991127D01*
X15274944Y-11991127D02*
X15284468Y-11962555D01*
X15284468Y-11962555D02*
X15293991Y-11943508D01*
X15293991Y-11943508D02*
X15313039Y-11914936D01*
X15313039Y-11914936D02*
X15322563Y-11905412D01*
X15427325Y-12019698D02*
X15408277Y-12010174D01*
X15408277Y-12010174D02*
X15398753Y-12000650D01*
X15398753Y-12000650D02*
X15389229Y-11981603D01*
X15389229Y-11981603D02*
X15389229Y-11972079D01*
X15389229Y-11972079D02*
X15398753Y-11953031D01*
X15398753Y-11953031D02*
X15408277Y-11943508D01*
X15408277Y-11943508D02*
X15427325Y-11933984D01*
X15427325Y-11933984D02*
X15465420Y-11933984D01*
X15465420Y-11933984D02*
X15484468Y-11943508D01*
X15484468Y-11943508D02*
X15493991Y-11953031D01*
X15493991Y-11953031D02*
X15503515Y-11972079D01*
X15503515Y-11972079D02*
X15503515Y-11981603D01*
X15503515Y-11981603D02*
X15493991Y-12000650D01*
X15493991Y-12000650D02*
X15484468Y-12010174D01*
X15484468Y-12010174D02*
X15465420Y-12019698D01*
X15465420Y-12019698D02*
X15427325Y-12019698D01*
X15427325Y-12019698D02*
X15408277Y-12029222D01*
X15408277Y-12029222D02*
X15398753Y-12038746D01*
X15398753Y-12038746D02*
X15389229Y-12057793D01*
X15389229Y-12057793D02*
X15389229Y-12095888D01*
X15389229Y-12095888D02*
X15398753Y-12114936D01*
X15398753Y-12114936D02*
X15408277Y-12124460D01*
X15408277Y-12124460D02*
X15427325Y-12133984D01*
X15427325Y-12133984D02*
X15465420Y-12133984D01*
X15465420Y-12133984D02*
X15484468Y-12124460D01*
X15484468Y-12124460D02*
X15493991Y-12114936D01*
X15493991Y-12114936D02*
X15503515Y-12095888D01*
X15503515Y-12095888D02*
X15503515Y-12057793D01*
X15503515Y-12057793D02*
X15493991Y-12038746D01*
X15493991Y-12038746D02*
X15484468Y-12029222D01*
X15484468Y-12029222D02*
X15465420Y-12019698D01*
X15674944Y-12000650D02*
X15674944Y-12133984D01*
X15627325Y-11924460D02*
X15579706Y-12067317D01*
X15579706Y-12067317D02*
X15703515Y-12067317D01*
X15932087Y-12133984D02*
X15932087Y-11933984D01*
X16017801Y-12133984D02*
X16017801Y-12029222D01*
X16017801Y-12029222D02*
X16008277Y-12010174D01*
X16008277Y-12010174D02*
X15989230Y-12000650D01*
X15989230Y-12000650D02*
X15960658Y-12000650D01*
X15960658Y-12000650D02*
X15941610Y-12010174D01*
X15941610Y-12010174D02*
X15932087Y-12019698D01*
X16141610Y-12133984D02*
X16122563Y-12124460D01*
X16122563Y-12124460D02*
X16113039Y-12114936D01*
X16113039Y-12114936D02*
X16103515Y-12095888D01*
X16103515Y-12095888D02*
X16103515Y-12038746D01*
X16103515Y-12038746D02*
X16113039Y-12019698D01*
X16113039Y-12019698D02*
X16122563Y-12010174D01*
X16122563Y-12010174D02*
X16141610Y-12000650D01*
X16141610Y-12000650D02*
X16170182Y-12000650D01*
X16170182Y-12000650D02*
X16189230Y-12010174D01*
X16189230Y-12010174D02*
X16198753Y-12019698D01*
X16198753Y-12019698D02*
X16208277Y-12038746D01*
X16208277Y-12038746D02*
X16208277Y-12095888D01*
X16208277Y-12095888D02*
X16198753Y-12114936D01*
X16198753Y-12114936D02*
X16189230Y-12124460D01*
X16189230Y-12124460D02*
X16170182Y-12133984D01*
X16170182Y-12133984D02*
X16141610Y-12133984D01*
X16322563Y-12133984D02*
X16303515Y-12124460D01*
X16303515Y-12124460D02*
X16293991Y-12105412D01*
X16293991Y-12105412D02*
X16293991Y-11933984D01*
X16474944Y-12124460D02*
X16455896Y-12133984D01*
X16455896Y-12133984D02*
X16417801Y-12133984D01*
X16417801Y-12133984D02*
X16398753Y-12124460D01*
X16398753Y-12124460D02*
X16389230Y-12105412D01*
X16389230Y-12105412D02*
X16389230Y-12029222D01*
X16389230Y-12029222D02*
X16398753Y-12010174D01*
X16398753Y-12010174D02*
X16417801Y-12000650D01*
X16417801Y-12000650D02*
X16455896Y-12000650D01*
X16455896Y-12000650D02*
X16474944Y-12010174D01*
X16474944Y-12010174D02*
X16484468Y-12029222D01*
X16484468Y-12029222D02*
X16484468Y-12048269D01*
X16484468Y-12048269D02*
X16389230Y-12067317D01*
X16560658Y-12124460D02*
X16579706Y-12133984D01*
X16579706Y-12133984D02*
X16617801Y-12133984D01*
X16617801Y-12133984D02*
X16636849Y-12124460D01*
X16636849Y-12124460D02*
X16646372Y-12105412D01*
X16646372Y-12105412D02*
X16646372Y-12095888D01*
X16646372Y-12095888D02*
X16636849Y-12076841D01*
X16636849Y-12076841D02*
X16617801Y-12067317D01*
X16617801Y-12067317D02*
X16589230Y-12067317D01*
X16589230Y-12067317D02*
X16570182Y-12057793D01*
X16570182Y-12057793D02*
X16560658Y-12038746D01*
X16560658Y-12038746D02*
X16560658Y-12029222D01*
X16560658Y-12029222D02*
X16570182Y-12010174D01*
X16570182Y-12010174D02*
X16589230Y-12000650D01*
X16589230Y-12000650D02*
X16617801Y-12000650D01*
X16617801Y-12000650D02*
X16636849Y-12010174D01*
X16713039Y-12210174D02*
X16722563Y-12200650D01*
X16722563Y-12200650D02*
X16741611Y-12172079D01*
X16741611Y-12172079D02*
X16751134Y-12153031D01*
X16751134Y-12153031D02*
X16760658Y-12124460D01*
X16760658Y-12124460D02*
X16770182Y-12076841D01*
X16770182Y-12076841D02*
X16770182Y-12038746D01*
X16770182Y-12038746D02*
X16760658Y-11991127D01*
X16760658Y-11991127D02*
X16751134Y-11962555D01*
X16751134Y-11962555D02*
X16741611Y-11943508D01*
X16741611Y-11943508D02*
X16722563Y-11914936D01*
X16722563Y-11914936D02*
X16713039Y-11905412D01*
X11747500Y-12306500D02*
G75*
G02*
X11547500Y-12306500I-100000J0D01*
G01*
X11547500Y-12306500D02*
G75*
G02*
X11747500Y-12306500I100000J0D01*
G01*
X11998753Y-12217031D02*
X12008277Y-12207508D01*
X12008277Y-12207508D02*
X12027324Y-12197984D01*
X12027324Y-12197984D02*
X12074943Y-12197984D01*
X12074943Y-12197984D02*
X12093991Y-12207508D01*
X12093991Y-12207508D02*
X12103515Y-12217031D01*
X12103515Y-12217031D02*
X12113039Y-12236079D01*
X12113039Y-12236079D02*
X12113039Y-12255127D01*
X12113039Y-12255127D02*
X12103515Y-12283698D01*
X12103515Y-12283698D02*
X11989229Y-12397984D01*
X11989229Y-12397984D02*
X12113039Y-12397984D01*
X12198753Y-12378936D02*
X12208277Y-12388460D01*
X12208277Y-12388460D02*
X12198753Y-12397984D01*
X12198753Y-12397984D02*
X12189229Y-12388460D01*
X12189229Y-12388460D02*
X12198753Y-12378936D01*
X12198753Y-12378936D02*
X12198753Y-12397984D01*
X12389229Y-12197984D02*
X12293991Y-12197984D01*
X12293991Y-12197984D02*
X12284467Y-12293222D01*
X12284467Y-12293222D02*
X12293991Y-12283698D01*
X12293991Y-12283698D02*
X12313039Y-12274174D01*
X12313039Y-12274174D02*
X12360658Y-12274174D01*
X12360658Y-12274174D02*
X12379705Y-12283698D01*
X12379705Y-12283698D02*
X12389229Y-12293222D01*
X12389229Y-12293222D02*
X12398753Y-12312269D01*
X12398753Y-12312269D02*
X12398753Y-12359888D01*
X12398753Y-12359888D02*
X12389229Y-12378936D01*
X12389229Y-12378936D02*
X12379705Y-12388460D01*
X12379705Y-12388460D02*
X12360658Y-12397984D01*
X12360658Y-12397984D02*
X12313039Y-12397984D01*
X12313039Y-12397984D02*
X12293991Y-12388460D01*
X12293991Y-12388460D02*
X12284467Y-12378936D01*
X12570182Y-12264650D02*
X12570182Y-12397984D01*
X12522562Y-12188460D02*
X12474943Y-12331317D01*
X12474943Y-12331317D02*
X12598753Y-12331317D01*
X12713039Y-12197984D02*
X12732086Y-12197984D01*
X12732086Y-12197984D02*
X12751134Y-12207508D01*
X12751134Y-12207508D02*
X12760658Y-12217031D01*
X12760658Y-12217031D02*
X12770182Y-12236079D01*
X12770182Y-12236079D02*
X12779705Y-12274174D01*
X12779705Y-12274174D02*
X12779705Y-12321793D01*
X12779705Y-12321793D02*
X12770182Y-12359888D01*
X12770182Y-12359888D02*
X12760658Y-12378936D01*
X12760658Y-12378936D02*
X12751134Y-12388460D01*
X12751134Y-12388460D02*
X12732086Y-12397984D01*
X12732086Y-12397984D02*
X12713039Y-12397984D01*
X12713039Y-12397984D02*
X12693991Y-12388460D01*
X12693991Y-12388460D02*
X12684467Y-12378936D01*
X12684467Y-12378936D02*
X12674943Y-12359888D01*
X12674943Y-12359888D02*
X12665420Y-12321793D01*
X12665420Y-12321793D02*
X12665420Y-12274174D01*
X12665420Y-12274174D02*
X12674943Y-12236079D01*
X12674943Y-12236079D02*
X12684467Y-12217031D01*
X12684467Y-12217031D02*
X12693991Y-12207508D01*
X12693991Y-12207508D02*
X12713039Y-12197984D01*
X12865420Y-12397984D02*
X12865420Y-12264650D01*
X12865420Y-12283698D02*
X12874943Y-12274174D01*
X12874943Y-12274174D02*
X12893991Y-12264650D01*
X12893991Y-12264650D02*
X12922563Y-12264650D01*
X12922563Y-12264650D02*
X12941610Y-12274174D01*
X12941610Y-12274174D02*
X12951134Y-12293222D01*
X12951134Y-12293222D02*
X12951134Y-12397984D01*
X12951134Y-12293222D02*
X12960658Y-12274174D01*
X12960658Y-12274174D02*
X12979705Y-12264650D01*
X12979705Y-12264650D02*
X13008277Y-12264650D01*
X13008277Y-12264650D02*
X13027324Y-12274174D01*
X13027324Y-12274174D02*
X13036848Y-12293222D01*
X13036848Y-12293222D02*
X13036848Y-12397984D01*
X13132086Y-12397984D02*
X13132086Y-12264650D01*
X13132086Y-12283698D02*
X13141610Y-12274174D01*
X13141610Y-12274174D02*
X13160658Y-12264650D01*
X13160658Y-12264650D02*
X13189229Y-12264650D01*
X13189229Y-12264650D02*
X13208277Y-12274174D01*
X13208277Y-12274174D02*
X13217801Y-12293222D01*
X13217801Y-12293222D02*
X13217801Y-12397984D01*
X13217801Y-12293222D02*
X13227324Y-12274174D01*
X13227324Y-12274174D02*
X13246372Y-12264650D01*
X13246372Y-12264650D02*
X13274943Y-12264650D01*
X13274943Y-12264650D02*
X13293991Y-12274174D01*
X13293991Y-12274174D02*
X13303515Y-12293222D01*
X13303515Y-12293222D02*
X13303515Y-12397984D01*
X13693991Y-12188460D02*
X13522563Y-12445603D01*
X13951134Y-12197984D02*
X13970182Y-12197984D01*
X13970182Y-12197984D02*
X13989229Y-12207508D01*
X13989229Y-12207508D02*
X13998753Y-12217031D01*
X13998753Y-12217031D02*
X14008277Y-12236079D01*
X14008277Y-12236079D02*
X14017801Y-12274174D01*
X14017801Y-12274174D02*
X14017801Y-12321793D01*
X14017801Y-12321793D02*
X14008277Y-12359888D01*
X14008277Y-12359888D02*
X13998753Y-12378936D01*
X13998753Y-12378936D02*
X13989229Y-12388460D01*
X13989229Y-12388460D02*
X13970182Y-12397984D01*
X13970182Y-12397984D02*
X13951134Y-12397984D01*
X13951134Y-12397984D02*
X13932086Y-12388460D01*
X13932086Y-12388460D02*
X13922563Y-12378936D01*
X13922563Y-12378936D02*
X13913039Y-12359888D01*
X13913039Y-12359888D02*
X13903515Y-12321793D01*
X13903515Y-12321793D02*
X13903515Y-12274174D01*
X13903515Y-12274174D02*
X13913039Y-12236079D01*
X13913039Y-12236079D02*
X13922563Y-12217031D01*
X13922563Y-12217031D02*
X13932086Y-12207508D01*
X13932086Y-12207508D02*
X13951134Y-12197984D01*
X14103515Y-12378936D02*
X14113039Y-12388460D01*
X14113039Y-12388460D02*
X14103515Y-12397984D01*
X14103515Y-12397984D02*
X14093991Y-12388460D01*
X14093991Y-12388460D02*
X14103515Y-12378936D01*
X14103515Y-12378936D02*
X14103515Y-12397984D01*
X14303515Y-12397984D02*
X14189229Y-12397984D01*
X14246372Y-12397984D02*
X14246372Y-12197984D01*
X14246372Y-12197984D02*
X14227325Y-12226555D01*
X14227325Y-12226555D02*
X14208277Y-12245603D01*
X14208277Y-12245603D02*
X14189229Y-12255127D01*
X14427325Y-12197984D02*
X14446372Y-12197984D01*
X14446372Y-12197984D02*
X14465420Y-12207508D01*
X14465420Y-12207508D02*
X14474944Y-12217031D01*
X14474944Y-12217031D02*
X14484467Y-12236079D01*
X14484467Y-12236079D02*
X14493991Y-12274174D01*
X14493991Y-12274174D02*
X14493991Y-12321793D01*
X14493991Y-12321793D02*
X14484467Y-12359888D01*
X14484467Y-12359888D02*
X14474944Y-12378936D01*
X14474944Y-12378936D02*
X14465420Y-12388460D01*
X14465420Y-12388460D02*
X14446372Y-12397984D01*
X14446372Y-12397984D02*
X14427325Y-12397984D01*
X14427325Y-12397984D02*
X14408277Y-12388460D01*
X14408277Y-12388460D02*
X14398753Y-12378936D01*
X14398753Y-12378936D02*
X14389229Y-12359888D01*
X14389229Y-12359888D02*
X14379706Y-12321793D01*
X14379706Y-12321793D02*
X14379706Y-12274174D01*
X14379706Y-12274174D02*
X14389229Y-12236079D01*
X14389229Y-12236079D02*
X14398753Y-12217031D01*
X14398753Y-12217031D02*
X14408277Y-12207508D01*
X14408277Y-12207508D02*
X14427325Y-12197984D01*
X14617801Y-12197984D02*
X14636848Y-12197984D01*
X14636848Y-12197984D02*
X14655896Y-12207508D01*
X14655896Y-12207508D02*
X14665420Y-12217031D01*
X14665420Y-12217031D02*
X14674944Y-12236079D01*
X14674944Y-12236079D02*
X14684467Y-12274174D01*
X14684467Y-12274174D02*
X14684467Y-12321793D01*
X14684467Y-12321793D02*
X14674944Y-12359888D01*
X14674944Y-12359888D02*
X14665420Y-12378936D01*
X14665420Y-12378936D02*
X14655896Y-12388460D01*
X14655896Y-12388460D02*
X14636848Y-12397984D01*
X14636848Y-12397984D02*
X14617801Y-12397984D01*
X14617801Y-12397984D02*
X14598753Y-12388460D01*
X14598753Y-12388460D02*
X14589229Y-12378936D01*
X14589229Y-12378936D02*
X14579706Y-12359888D01*
X14579706Y-12359888D02*
X14570182Y-12321793D01*
X14570182Y-12321793D02*
X14570182Y-12274174D01*
X14570182Y-12274174D02*
X14579706Y-12236079D01*
X14579706Y-12236079D02*
X14589229Y-12217031D01*
X14589229Y-12217031D02*
X14598753Y-12207508D01*
X14598753Y-12207508D02*
X14617801Y-12197984D01*
X14808277Y-12197984D02*
X14827325Y-12197984D01*
X14827325Y-12197984D02*
X14846372Y-12207508D01*
X14846372Y-12207508D02*
X14855896Y-12217031D01*
X14855896Y-12217031D02*
X14865420Y-12236079D01*
X14865420Y-12236079D02*
X14874944Y-12274174D01*
X14874944Y-12274174D02*
X14874944Y-12321793D01*
X14874944Y-12321793D02*
X14865420Y-12359888D01*
X14865420Y-12359888D02*
X14855896Y-12378936D01*
X14855896Y-12378936D02*
X14846372Y-12388460D01*
X14846372Y-12388460D02*
X14827325Y-12397984D01*
X14827325Y-12397984D02*
X14808277Y-12397984D01*
X14808277Y-12397984D02*
X14789229Y-12388460D01*
X14789229Y-12388460D02*
X14779706Y-12378936D01*
X14779706Y-12378936D02*
X14770182Y-12359888D01*
X14770182Y-12359888D02*
X14760658Y-12321793D01*
X14760658Y-12321793D02*
X14760658Y-12274174D01*
X14760658Y-12274174D02*
X14770182Y-12236079D01*
X14770182Y-12236079D02*
X14779706Y-12217031D01*
X14779706Y-12217031D02*
X14789229Y-12207508D01*
X14789229Y-12207508D02*
X14808277Y-12197984D01*
X14951134Y-12197984D02*
X14951134Y-12236079D01*
X15027325Y-12197984D02*
X15027325Y-12236079D01*
X15322563Y-12474174D02*
X15313039Y-12464650D01*
X15313039Y-12464650D02*
X15293991Y-12436079D01*
X15293991Y-12436079D02*
X15284468Y-12417031D01*
X15284468Y-12417031D02*
X15274944Y-12388460D01*
X15274944Y-12388460D02*
X15265420Y-12340841D01*
X15265420Y-12340841D02*
X15265420Y-12302746D01*
X15265420Y-12302746D02*
X15274944Y-12255127D01*
X15274944Y-12255127D02*
X15284468Y-12226555D01*
X15284468Y-12226555D02*
X15293991Y-12207508D01*
X15293991Y-12207508D02*
X15313039Y-12178936D01*
X15313039Y-12178936D02*
X15322563Y-12169412D01*
X15389229Y-12217031D02*
X15398753Y-12207508D01*
X15398753Y-12207508D02*
X15417801Y-12197984D01*
X15417801Y-12197984D02*
X15465420Y-12197984D01*
X15465420Y-12197984D02*
X15484468Y-12207508D01*
X15484468Y-12207508D02*
X15493991Y-12217031D01*
X15493991Y-12217031D02*
X15503515Y-12236079D01*
X15503515Y-12236079D02*
X15503515Y-12255127D01*
X15503515Y-12255127D02*
X15493991Y-12283698D01*
X15493991Y-12283698D02*
X15379706Y-12397984D01*
X15379706Y-12397984D02*
X15503515Y-12397984D01*
X15741610Y-12397984D02*
X15741610Y-12197984D01*
X15827325Y-12397984D02*
X15827325Y-12293222D01*
X15827325Y-12293222D02*
X15817801Y-12274174D01*
X15817801Y-12274174D02*
X15798753Y-12264650D01*
X15798753Y-12264650D02*
X15770182Y-12264650D01*
X15770182Y-12264650D02*
X15751134Y-12274174D01*
X15751134Y-12274174D02*
X15741610Y-12283698D01*
X15951134Y-12397984D02*
X15932087Y-12388460D01*
X15932087Y-12388460D02*
X15922563Y-12378936D01*
X15922563Y-12378936D02*
X15913039Y-12359888D01*
X15913039Y-12359888D02*
X15913039Y-12302746D01*
X15913039Y-12302746D02*
X15922563Y-12283698D01*
X15922563Y-12283698D02*
X15932087Y-12274174D01*
X15932087Y-12274174D02*
X15951134Y-12264650D01*
X15951134Y-12264650D02*
X15979706Y-12264650D01*
X15979706Y-12264650D02*
X15998753Y-12274174D01*
X15998753Y-12274174D02*
X16008277Y-12283698D01*
X16008277Y-12283698D02*
X16017801Y-12302746D01*
X16017801Y-12302746D02*
X16017801Y-12359888D01*
X16017801Y-12359888D02*
X16008277Y-12378936D01*
X16008277Y-12378936D02*
X15998753Y-12388460D01*
X15998753Y-12388460D02*
X15979706Y-12397984D01*
X15979706Y-12397984D02*
X15951134Y-12397984D01*
X16132087Y-12397984D02*
X16113039Y-12388460D01*
X16113039Y-12388460D02*
X16103515Y-12369412D01*
X16103515Y-12369412D02*
X16103515Y-12197984D01*
X16284468Y-12388460D02*
X16265420Y-12397984D01*
X16265420Y-12397984D02*
X16227325Y-12397984D01*
X16227325Y-12397984D02*
X16208277Y-12388460D01*
X16208277Y-12388460D02*
X16198753Y-12369412D01*
X16198753Y-12369412D02*
X16198753Y-12293222D01*
X16198753Y-12293222D02*
X16208277Y-12274174D01*
X16208277Y-12274174D02*
X16227325Y-12264650D01*
X16227325Y-12264650D02*
X16265420Y-12264650D01*
X16265420Y-12264650D02*
X16284468Y-12274174D01*
X16284468Y-12274174D02*
X16293991Y-12293222D01*
X16293991Y-12293222D02*
X16293991Y-12312269D01*
X16293991Y-12312269D02*
X16198753Y-12331317D01*
X16370182Y-12388460D02*
X16389230Y-12397984D01*
X16389230Y-12397984D02*
X16427325Y-12397984D01*
X16427325Y-12397984D02*
X16446372Y-12388460D01*
X16446372Y-12388460D02*
X16455896Y-12369412D01*
X16455896Y-12369412D02*
X16455896Y-12359888D01*
X16455896Y-12359888D02*
X16446372Y-12340841D01*
X16446372Y-12340841D02*
X16427325Y-12331317D01*
X16427325Y-12331317D02*
X16398753Y-12331317D01*
X16398753Y-12331317D02*
X16379706Y-12321793D01*
X16379706Y-12321793D02*
X16370182Y-12302746D01*
X16370182Y-12302746D02*
X16370182Y-12293222D01*
X16370182Y-12293222D02*
X16379706Y-12274174D01*
X16379706Y-12274174D02*
X16398753Y-12264650D01*
X16398753Y-12264650D02*
X16427325Y-12264650D01*
X16427325Y-12264650D02*
X16446372Y-12274174D01*
X16522563Y-12474174D02*
X16532087Y-12464650D01*
X16532087Y-12464650D02*
X16551134Y-12436079D01*
X16551134Y-12436079D02*
X16560658Y-12417031D01*
X16560658Y-12417031D02*
X16570182Y-12388460D01*
X16570182Y-12388460D02*
X16579706Y-12340841D01*
X16579706Y-12340841D02*
X16579706Y-12302746D01*
X16579706Y-12302746D02*
X16570182Y-12255127D01*
X16570182Y-12255127D02*
X16560658Y-12226555D01*
X16560658Y-12226555D02*
X16551134Y-12207508D01*
X16551134Y-12207508D02*
X16532087Y-12178936D01*
X16532087Y-12178936D02*
X16522563Y-12169412D01*
X11647500Y-12526500D02*
X11647500Y-12726500D01*
X11547500Y-12626500D02*
X11747500Y-12626500D01*
X11998753Y-12537031D02*
X12008277Y-12527508D01*
X12008277Y-12527508D02*
X12027324Y-12517984D01*
X12027324Y-12517984D02*
X12074943Y-12517984D01*
X12074943Y-12517984D02*
X12093991Y-12527508D01*
X12093991Y-12527508D02*
X12103515Y-12537031D01*
X12103515Y-12537031D02*
X12113039Y-12556079D01*
X12113039Y-12556079D02*
X12113039Y-12575127D01*
X12113039Y-12575127D02*
X12103515Y-12603698D01*
X12103515Y-12603698D02*
X11989229Y-12717984D01*
X11989229Y-12717984D02*
X12113039Y-12717984D01*
X12198753Y-12698936D02*
X12208277Y-12708460D01*
X12208277Y-12708460D02*
X12198753Y-12717984D01*
X12198753Y-12717984D02*
X12189229Y-12708460D01*
X12189229Y-12708460D02*
X12198753Y-12698936D01*
X12198753Y-12698936D02*
X12198753Y-12717984D01*
X12274943Y-12517984D02*
X12408277Y-12517984D01*
X12408277Y-12517984D02*
X12322562Y-12717984D01*
X12522562Y-12517984D02*
X12541610Y-12517984D01*
X12541610Y-12517984D02*
X12560658Y-12527508D01*
X12560658Y-12527508D02*
X12570182Y-12537031D01*
X12570182Y-12537031D02*
X12579705Y-12556079D01*
X12579705Y-12556079D02*
X12589229Y-12594174D01*
X12589229Y-12594174D02*
X12589229Y-12641793D01*
X12589229Y-12641793D02*
X12579705Y-12679888D01*
X12579705Y-12679888D02*
X12570182Y-12698936D01*
X12570182Y-12698936D02*
X12560658Y-12708460D01*
X12560658Y-12708460D02*
X12541610Y-12717984D01*
X12541610Y-12717984D02*
X12522562Y-12717984D01*
X12522562Y-12717984D02*
X12503515Y-12708460D01*
X12503515Y-12708460D02*
X12493991Y-12698936D01*
X12493991Y-12698936D02*
X12484467Y-12679888D01*
X12484467Y-12679888D02*
X12474943Y-12641793D01*
X12474943Y-12641793D02*
X12474943Y-12594174D01*
X12474943Y-12594174D02*
X12484467Y-12556079D01*
X12484467Y-12556079D02*
X12493991Y-12537031D01*
X12493991Y-12537031D02*
X12503515Y-12527508D01*
X12503515Y-12527508D02*
X12522562Y-12517984D01*
X12713039Y-12517984D02*
X12732086Y-12517984D01*
X12732086Y-12517984D02*
X12751134Y-12527508D01*
X12751134Y-12527508D02*
X12760658Y-12537031D01*
X12760658Y-12537031D02*
X12770182Y-12556079D01*
X12770182Y-12556079D02*
X12779705Y-12594174D01*
X12779705Y-12594174D02*
X12779705Y-12641793D01*
X12779705Y-12641793D02*
X12770182Y-12679888D01*
X12770182Y-12679888D02*
X12760658Y-12698936D01*
X12760658Y-12698936D02*
X12751134Y-12708460D01*
X12751134Y-12708460D02*
X12732086Y-12717984D01*
X12732086Y-12717984D02*
X12713039Y-12717984D01*
X12713039Y-12717984D02*
X12693991Y-12708460D01*
X12693991Y-12708460D02*
X12684467Y-12698936D01*
X12684467Y-12698936D02*
X12674943Y-12679888D01*
X12674943Y-12679888D02*
X12665420Y-12641793D01*
X12665420Y-12641793D02*
X12665420Y-12594174D01*
X12665420Y-12594174D02*
X12674943Y-12556079D01*
X12674943Y-12556079D02*
X12684467Y-12537031D01*
X12684467Y-12537031D02*
X12693991Y-12527508D01*
X12693991Y-12527508D02*
X12713039Y-12517984D01*
X12865420Y-12717984D02*
X12865420Y-12584650D01*
X12865420Y-12603698D02*
X12874943Y-12594174D01*
X12874943Y-12594174D02*
X12893991Y-12584650D01*
X12893991Y-12584650D02*
X12922563Y-12584650D01*
X12922563Y-12584650D02*
X12941610Y-12594174D01*
X12941610Y-12594174D02*
X12951134Y-12613222D01*
X12951134Y-12613222D02*
X12951134Y-12717984D01*
X12951134Y-12613222D02*
X12960658Y-12594174D01*
X12960658Y-12594174D02*
X12979705Y-12584650D01*
X12979705Y-12584650D02*
X13008277Y-12584650D01*
X13008277Y-12584650D02*
X13027324Y-12594174D01*
X13027324Y-12594174D02*
X13036848Y-12613222D01*
X13036848Y-12613222D02*
X13036848Y-12717984D01*
X13132086Y-12717984D02*
X13132086Y-12584650D01*
X13132086Y-12603698D02*
X13141610Y-12594174D01*
X13141610Y-12594174D02*
X13160658Y-12584650D01*
X13160658Y-12584650D02*
X13189229Y-12584650D01*
X13189229Y-12584650D02*
X13208277Y-12594174D01*
X13208277Y-12594174D02*
X13217801Y-12613222D01*
X13217801Y-12613222D02*
X13217801Y-12717984D01*
X13217801Y-12613222D02*
X13227324Y-12594174D01*
X13227324Y-12594174D02*
X13246372Y-12584650D01*
X13246372Y-12584650D02*
X13274943Y-12584650D01*
X13274943Y-12584650D02*
X13293991Y-12594174D01*
X13293991Y-12594174D02*
X13303515Y-12613222D01*
X13303515Y-12613222D02*
X13303515Y-12717984D01*
X13693991Y-12508460D02*
X13522563Y-12765603D01*
X13951134Y-12517984D02*
X13970182Y-12517984D01*
X13970182Y-12517984D02*
X13989229Y-12527508D01*
X13989229Y-12527508D02*
X13998753Y-12537031D01*
X13998753Y-12537031D02*
X14008277Y-12556079D01*
X14008277Y-12556079D02*
X14017801Y-12594174D01*
X14017801Y-12594174D02*
X14017801Y-12641793D01*
X14017801Y-12641793D02*
X14008277Y-12679888D01*
X14008277Y-12679888D02*
X13998753Y-12698936D01*
X13998753Y-12698936D02*
X13989229Y-12708460D01*
X13989229Y-12708460D02*
X13970182Y-12717984D01*
X13970182Y-12717984D02*
X13951134Y-12717984D01*
X13951134Y-12717984D02*
X13932086Y-12708460D01*
X13932086Y-12708460D02*
X13922563Y-12698936D01*
X13922563Y-12698936D02*
X13913039Y-12679888D01*
X13913039Y-12679888D02*
X13903515Y-12641793D01*
X13903515Y-12641793D02*
X13903515Y-12594174D01*
X13903515Y-12594174D02*
X13913039Y-12556079D01*
X13913039Y-12556079D02*
X13922563Y-12537031D01*
X13922563Y-12537031D02*
X13932086Y-12527508D01*
X13932086Y-12527508D02*
X13951134Y-12517984D01*
X14103515Y-12698936D02*
X14113039Y-12708460D01*
X14113039Y-12708460D02*
X14103515Y-12717984D01*
X14103515Y-12717984D02*
X14093991Y-12708460D01*
X14093991Y-12708460D02*
X14103515Y-12698936D01*
X14103515Y-12698936D02*
X14103515Y-12717984D01*
X14303515Y-12717984D02*
X14189229Y-12717984D01*
X14246372Y-12717984D02*
X14246372Y-12517984D01*
X14246372Y-12517984D02*
X14227325Y-12546555D01*
X14227325Y-12546555D02*
X14208277Y-12565603D01*
X14208277Y-12565603D02*
X14189229Y-12575127D01*
X14427325Y-12517984D02*
X14446372Y-12517984D01*
X14446372Y-12517984D02*
X14465420Y-12527508D01*
X14465420Y-12527508D02*
X14474944Y-12537031D01*
X14474944Y-12537031D02*
X14484467Y-12556079D01*
X14484467Y-12556079D02*
X14493991Y-12594174D01*
X14493991Y-12594174D02*
X14493991Y-12641793D01*
X14493991Y-12641793D02*
X14484467Y-12679888D01*
X14484467Y-12679888D02*
X14474944Y-12698936D01*
X14474944Y-12698936D02*
X14465420Y-12708460D01*
X14465420Y-12708460D02*
X14446372Y-12717984D01*
X14446372Y-12717984D02*
X14427325Y-12717984D01*
X14427325Y-12717984D02*
X14408277Y-12708460D01*
X14408277Y-12708460D02*
X14398753Y-12698936D01*
X14398753Y-12698936D02*
X14389229Y-12679888D01*
X14389229Y-12679888D02*
X14379706Y-12641793D01*
X14379706Y-12641793D02*
X14379706Y-12594174D01*
X14379706Y-12594174D02*
X14389229Y-12556079D01*
X14389229Y-12556079D02*
X14398753Y-12537031D01*
X14398753Y-12537031D02*
X14408277Y-12527508D01*
X14408277Y-12527508D02*
X14427325Y-12517984D01*
X14665420Y-12517984D02*
X14627325Y-12517984D01*
X14627325Y-12517984D02*
X14608277Y-12527508D01*
X14608277Y-12527508D02*
X14598753Y-12537031D01*
X14598753Y-12537031D02*
X14579706Y-12565603D01*
X14579706Y-12565603D02*
X14570182Y-12603698D01*
X14570182Y-12603698D02*
X14570182Y-12679888D01*
X14570182Y-12679888D02*
X14579706Y-12698936D01*
X14579706Y-12698936D02*
X14589229Y-12708460D01*
X14589229Y-12708460D02*
X14608277Y-12717984D01*
X14608277Y-12717984D02*
X14646372Y-12717984D01*
X14646372Y-12717984D02*
X14665420Y-12708460D01*
X14665420Y-12708460D02*
X14674944Y-12698936D01*
X14674944Y-12698936D02*
X14684467Y-12679888D01*
X14684467Y-12679888D02*
X14684467Y-12632269D01*
X14684467Y-12632269D02*
X14674944Y-12613222D01*
X14674944Y-12613222D02*
X14665420Y-12603698D01*
X14665420Y-12603698D02*
X14646372Y-12594174D01*
X14646372Y-12594174D02*
X14608277Y-12594174D01*
X14608277Y-12594174D02*
X14589229Y-12603698D01*
X14589229Y-12603698D02*
X14579706Y-12613222D01*
X14579706Y-12613222D02*
X14570182Y-12632269D01*
X14751134Y-12517984D02*
X14874944Y-12517984D01*
X14874944Y-12517984D02*
X14808277Y-12594174D01*
X14808277Y-12594174D02*
X14836848Y-12594174D01*
X14836848Y-12594174D02*
X14855896Y-12603698D01*
X14855896Y-12603698D02*
X14865420Y-12613222D01*
X14865420Y-12613222D02*
X14874944Y-12632269D01*
X14874944Y-12632269D02*
X14874944Y-12679888D01*
X14874944Y-12679888D02*
X14865420Y-12698936D01*
X14865420Y-12698936D02*
X14855896Y-12708460D01*
X14855896Y-12708460D02*
X14836848Y-12717984D01*
X14836848Y-12717984D02*
X14779706Y-12717984D01*
X14779706Y-12717984D02*
X14760658Y-12708460D01*
X14760658Y-12708460D02*
X14751134Y-12698936D01*
X14951134Y-12517984D02*
X14951134Y-12556079D01*
X15027325Y-12517984D02*
X15027325Y-12556079D01*
X15322563Y-12794174D02*
X15313039Y-12784650D01*
X15313039Y-12784650D02*
X15293991Y-12756079D01*
X15293991Y-12756079D02*
X15284468Y-12737031D01*
X15284468Y-12737031D02*
X15274944Y-12708460D01*
X15274944Y-12708460D02*
X15265420Y-12660841D01*
X15265420Y-12660841D02*
X15265420Y-12622746D01*
X15265420Y-12622746D02*
X15274944Y-12575127D01*
X15274944Y-12575127D02*
X15284468Y-12546555D01*
X15284468Y-12546555D02*
X15293991Y-12527508D01*
X15293991Y-12527508D02*
X15313039Y-12498936D01*
X15313039Y-12498936D02*
X15322563Y-12489412D01*
X15484468Y-12584650D02*
X15484468Y-12717984D01*
X15436848Y-12508460D02*
X15389229Y-12651317D01*
X15389229Y-12651317D02*
X15513039Y-12651317D01*
X15741610Y-12717984D02*
X15741610Y-12517984D01*
X15827325Y-12717984D02*
X15827325Y-12613222D01*
X15827325Y-12613222D02*
X15817801Y-12594174D01*
X15817801Y-12594174D02*
X15798753Y-12584650D01*
X15798753Y-12584650D02*
X15770182Y-12584650D01*
X15770182Y-12584650D02*
X15751134Y-12594174D01*
X15751134Y-12594174D02*
X15741610Y-12603698D01*
X15951134Y-12717984D02*
X15932087Y-12708460D01*
X15932087Y-12708460D02*
X15922563Y-12698936D01*
X15922563Y-12698936D02*
X15913039Y-12679888D01*
X15913039Y-12679888D02*
X15913039Y-12622746D01*
X15913039Y-12622746D02*
X15922563Y-12603698D01*
X15922563Y-12603698D02*
X15932087Y-12594174D01*
X15932087Y-12594174D02*
X15951134Y-12584650D01*
X15951134Y-12584650D02*
X15979706Y-12584650D01*
X15979706Y-12584650D02*
X15998753Y-12594174D01*
X15998753Y-12594174D02*
X16008277Y-12603698D01*
X16008277Y-12603698D02*
X16017801Y-12622746D01*
X16017801Y-12622746D02*
X16017801Y-12679888D01*
X16017801Y-12679888D02*
X16008277Y-12698936D01*
X16008277Y-12698936D02*
X15998753Y-12708460D01*
X15998753Y-12708460D02*
X15979706Y-12717984D01*
X15979706Y-12717984D02*
X15951134Y-12717984D01*
X16132087Y-12717984D02*
X16113039Y-12708460D01*
X16113039Y-12708460D02*
X16103515Y-12689412D01*
X16103515Y-12689412D02*
X16103515Y-12517984D01*
X16284468Y-12708460D02*
X16265420Y-12717984D01*
X16265420Y-12717984D02*
X16227325Y-12717984D01*
X16227325Y-12717984D02*
X16208277Y-12708460D01*
X16208277Y-12708460D02*
X16198753Y-12689412D01*
X16198753Y-12689412D02*
X16198753Y-12613222D01*
X16198753Y-12613222D02*
X16208277Y-12594174D01*
X16208277Y-12594174D02*
X16227325Y-12584650D01*
X16227325Y-12584650D02*
X16265420Y-12584650D01*
X16265420Y-12584650D02*
X16284468Y-12594174D01*
X16284468Y-12594174D02*
X16293991Y-12613222D01*
X16293991Y-12613222D02*
X16293991Y-12632269D01*
X16293991Y-12632269D02*
X16198753Y-12651317D01*
X16370182Y-12708460D02*
X16389230Y-12717984D01*
X16389230Y-12717984D02*
X16427325Y-12717984D01*
X16427325Y-12717984D02*
X16446372Y-12708460D01*
X16446372Y-12708460D02*
X16455896Y-12689412D01*
X16455896Y-12689412D02*
X16455896Y-12679888D01*
X16455896Y-12679888D02*
X16446372Y-12660841D01*
X16446372Y-12660841D02*
X16427325Y-12651317D01*
X16427325Y-12651317D02*
X16398753Y-12651317D01*
X16398753Y-12651317D02*
X16379706Y-12641793D01*
X16379706Y-12641793D02*
X16370182Y-12622746D01*
X16370182Y-12622746D02*
X16370182Y-12613222D01*
X16370182Y-12613222D02*
X16379706Y-12594174D01*
X16379706Y-12594174D02*
X16398753Y-12584650D01*
X16398753Y-12584650D02*
X16427325Y-12584650D01*
X16427325Y-12584650D02*
X16446372Y-12594174D01*
X16522563Y-12794174D02*
X16532087Y-12784650D01*
X16532087Y-12784650D02*
X16551134Y-12756079D01*
X16551134Y-12756079D02*
X16560658Y-12737031D01*
X16560658Y-12737031D02*
X16570182Y-12708460D01*
X16570182Y-12708460D02*
X16579706Y-12660841D01*
X16579706Y-12660841D02*
X16579706Y-12622746D01*
X16579706Y-12622746D02*
X16570182Y-12575127D01*
X16570182Y-12575127D02*
X16560658Y-12546555D01*
X16560658Y-12546555D02*
X16551134Y-12527508D01*
X16551134Y-12527508D02*
X16532087Y-12498936D01*
X16532087Y-12498936D02*
X16522563Y-12489412D01*
M02*
