%TF.GenerationSoftware,KiCad,Pcbnew,10.0.3-2.fc44*%
%TF.CreationDate,2026-06-02T16:33:35-06:00*%
%TF.ProjectId,lego-maya,6c65676f-2d6d-4617-9961-2e6b69636164,rev?*%
%TF.SameCoordinates,Original*%
%TF.FileFunction,Drillmap*%
%TF.FilePolarity,Positive*%
%FSLAX45Y45*%
G04 Gerber Fmt 4.5, Leading zero omitted, Abs format (unit mm)*
G04 Created by KiCad (PCBNEW 10.0.3-2.fc44) date 2026-06-02 16:33:35*
%MOMM*%
%LPD*%
G01*
G04 APERTURE LIST*
%ADD10C,0.050000*%
%ADD11C,0.200000*%
G04 APERTURE END LIST*
D10*
X11750000Y-8700000D02*
X11750000Y-8700000D01*
G75*
G02*
X12050000Y-8400000I300000J0D01*
G01*
X17950000Y-8400000D01*
G75*
G02*
X18250000Y-8700000I0J-300000D01*
G01*
X18250000Y-11100000D01*
G75*
G02*
X17950000Y-11400000I-300000J0D01*
G01*
X12050000Y-11400000D01*
G75*
G02*
X11750000Y-11100000I0J300000D01*
G01*
X11750000Y-8700000D01*
D11*
X12008277Y-11713984D02*
X12008277Y-11513984D01*
X12008277Y-11513984D02*
X12055896Y-11513984D01*
X12055896Y-11513984D02*
X12084467Y-11523508D01*
X12084467Y-11523508D02*
X12103515Y-11542555D01*
X12103515Y-11542555D02*
X12113039Y-11561603D01*
X12113039Y-11561603D02*
X12122562Y-11599698D01*
X12122562Y-11599698D02*
X12122562Y-11628269D01*
X12122562Y-11628269D02*
X12113039Y-11666365D01*
X12113039Y-11666365D02*
X12103515Y-11685412D01*
X12103515Y-11685412D02*
X12084467Y-11704460D01*
X12084467Y-11704460D02*
X12055896Y-11713984D01*
X12055896Y-11713984D02*
X12008277Y-11713984D01*
X12208277Y-11713984D02*
X12208277Y-11580650D01*
X12208277Y-11618746D02*
X12217801Y-11599698D01*
X12217801Y-11599698D02*
X12227324Y-11590174D01*
X12227324Y-11590174D02*
X12246372Y-11580650D01*
X12246372Y-11580650D02*
X12265420Y-11580650D01*
X12332086Y-11713984D02*
X12332086Y-11580650D01*
X12332086Y-11513984D02*
X12322562Y-11523508D01*
X12322562Y-11523508D02*
X12332086Y-11533031D01*
X12332086Y-11533031D02*
X12341610Y-11523508D01*
X12341610Y-11523508D02*
X12332086Y-11513984D01*
X12332086Y-11513984D02*
X12332086Y-11533031D01*
X12455896Y-11713984D02*
X12436848Y-11704460D01*
X12436848Y-11704460D02*
X12427324Y-11685412D01*
X12427324Y-11685412D02*
X12427324Y-11513984D01*
X12560658Y-11713984D02*
X12541610Y-11704460D01*
X12541610Y-11704460D02*
X12532086Y-11685412D01*
X12532086Y-11685412D02*
X12532086Y-11513984D01*
X12789229Y-11713984D02*
X12789229Y-11513984D01*
X12789229Y-11513984D02*
X12855896Y-11656841D01*
X12855896Y-11656841D02*
X12922562Y-11513984D01*
X12922562Y-11513984D02*
X12922562Y-11713984D01*
X13103515Y-11713984D02*
X13103515Y-11609222D01*
X13103515Y-11609222D02*
X13093991Y-11590174D01*
X13093991Y-11590174D02*
X13074943Y-11580650D01*
X13074943Y-11580650D02*
X13036848Y-11580650D01*
X13036848Y-11580650D02*
X13017801Y-11590174D01*
X13103515Y-11704460D02*
X13084467Y-11713984D01*
X13084467Y-11713984D02*
X13036848Y-11713984D01*
X13036848Y-11713984D02*
X13017801Y-11704460D01*
X13017801Y-11704460D02*
X13008277Y-11685412D01*
X13008277Y-11685412D02*
X13008277Y-11666365D01*
X13008277Y-11666365D02*
X13017801Y-11647317D01*
X13017801Y-11647317D02*
X13036848Y-11637793D01*
X13036848Y-11637793D02*
X13084467Y-11637793D01*
X13084467Y-11637793D02*
X13103515Y-11628269D01*
X13198753Y-11580650D02*
X13198753Y-11780650D01*
X13198753Y-11590174D02*
X13217801Y-11580650D01*
X13217801Y-11580650D02*
X13255896Y-11580650D01*
X13255896Y-11580650D02*
X13274943Y-11590174D01*
X13274943Y-11590174D02*
X13284467Y-11599698D01*
X13284467Y-11599698D02*
X13293991Y-11618746D01*
X13293991Y-11618746D02*
X13293991Y-11675888D01*
X13293991Y-11675888D02*
X13284467Y-11694936D01*
X13284467Y-11694936D02*
X13274943Y-11704460D01*
X13274943Y-11704460D02*
X13255896Y-11713984D01*
X13255896Y-11713984D02*
X13217801Y-11713984D01*
X13217801Y-11713984D02*
X13198753Y-11704460D01*
X13379705Y-11694936D02*
X13389229Y-11704460D01*
X13389229Y-11704460D02*
X13379705Y-11713984D01*
X13379705Y-11713984D02*
X13370182Y-11704460D01*
X13370182Y-11704460D02*
X13379705Y-11694936D01*
X13379705Y-11694936D02*
X13379705Y-11713984D01*
X13379705Y-11590174D02*
X13389229Y-11599698D01*
X13389229Y-11599698D02*
X13379705Y-11609222D01*
X13379705Y-11609222D02*
X13370182Y-11599698D01*
X13370182Y-11599698D02*
X13379705Y-11590174D01*
X13379705Y-11590174D02*
X13379705Y-11609222D01*
M02*
