%TF.GenerationSoftware,KiCad,Pcbnew,10.0.3-2.fc44*%
%TF.CreationDate,2026-06-02T16:33:18-06:00*%
%TF.ProjectId,lego-maya,6c65676f-2d6d-4617-9961-2e6b69636164,rev?*%
%TF.SameCoordinates,Original*%
%TF.FileFunction,Legend,Top*%
%TF.FilePolarity,Positive*%
%FSLAX46Y46*%
G04 Gerber Fmt 4.6, Leading zero omitted, Abs format (unit mm)*
G04 Created by KiCad (PCBNEW 10.0.3-2.fc44) date 2026-06-02 16:33:18*
%MOMM*%
%LPD*%
G01*
G04 APERTURE LIST*
%ADD10C,0.300000*%
%ADD11C,0.150000*%
%ADD12C,0.100000*%
%ADD13C,0.120000*%
G04 APERTURE END LIST*
D10*
X147154510Y-103200828D02*
X147154510Y-101700828D01*
X147154510Y-101700828D02*
X147654510Y-102772257D01*
X147654510Y-102772257D02*
X148154510Y-101700828D01*
X148154510Y-101700828D02*
X148154510Y-103200828D01*
X149511654Y-103200828D02*
X149511654Y-102415114D01*
X149511654Y-102415114D02*
X149440225Y-102272257D01*
X149440225Y-102272257D02*
X149297368Y-102200828D01*
X149297368Y-102200828D02*
X149011654Y-102200828D01*
X149011654Y-102200828D02*
X148868796Y-102272257D01*
X149511654Y-103129400D02*
X149368796Y-103200828D01*
X149368796Y-103200828D02*
X149011654Y-103200828D01*
X149011654Y-103200828D02*
X148868796Y-103129400D01*
X148868796Y-103129400D02*
X148797368Y-102986542D01*
X148797368Y-102986542D02*
X148797368Y-102843685D01*
X148797368Y-102843685D02*
X148868796Y-102700828D01*
X148868796Y-102700828D02*
X149011654Y-102629400D01*
X149011654Y-102629400D02*
X149368796Y-102629400D01*
X149368796Y-102629400D02*
X149511654Y-102557971D01*
X150083082Y-102200828D02*
X150440225Y-103200828D01*
X150797368Y-102200828D02*
X150440225Y-103200828D01*
X150440225Y-103200828D02*
X150297368Y-103557971D01*
X150297368Y-103557971D02*
X150225939Y-103629400D01*
X150225939Y-103629400D02*
X150083082Y-103700828D01*
X152011654Y-103200828D02*
X152011654Y-102415114D01*
X152011654Y-102415114D02*
X151940225Y-102272257D01*
X151940225Y-102272257D02*
X151797368Y-102200828D01*
X151797368Y-102200828D02*
X151511654Y-102200828D01*
X151511654Y-102200828D02*
X151368796Y-102272257D01*
X152011654Y-103129400D02*
X151868796Y-103200828D01*
X151868796Y-103200828D02*
X151511654Y-103200828D01*
X151511654Y-103200828D02*
X151368796Y-103129400D01*
X151368796Y-103129400D02*
X151297368Y-102986542D01*
X151297368Y-102986542D02*
X151297368Y-102843685D01*
X151297368Y-102843685D02*
X151368796Y-102700828D01*
X151368796Y-102700828D02*
X151511654Y-102629400D01*
X151511654Y-102629400D02*
X151868796Y-102629400D01*
X151868796Y-102629400D02*
X152011654Y-102557971D01*
D11*
X122894819Y-87563333D02*
X123609104Y-87563333D01*
X123609104Y-87563333D02*
X123751961Y-87610952D01*
X123751961Y-87610952D02*
X123847200Y-87706190D01*
X123847200Y-87706190D02*
X123894819Y-87849047D01*
X123894819Y-87849047D02*
X123894819Y-87944285D01*
X122990057Y-87134761D02*
X122942438Y-87087142D01*
X122942438Y-87087142D02*
X122894819Y-86991904D01*
X122894819Y-86991904D02*
X122894819Y-86753809D01*
X122894819Y-86753809D02*
X122942438Y-86658571D01*
X122942438Y-86658571D02*
X122990057Y-86610952D01*
X122990057Y-86610952D02*
X123085295Y-86563333D01*
X123085295Y-86563333D02*
X123180533Y-86563333D01*
X123180533Y-86563333D02*
X123323390Y-86610952D01*
X123323390Y-86610952D02*
X123894819Y-87182380D01*
X123894819Y-87182380D02*
X123894819Y-86563333D01*
X132787200Y-111833332D02*
X132834819Y-111690475D01*
X132834819Y-111690475D02*
X132834819Y-111452380D01*
X132834819Y-111452380D02*
X132787200Y-111357142D01*
X132787200Y-111357142D02*
X132739580Y-111309523D01*
X132739580Y-111309523D02*
X132644342Y-111261904D01*
X132644342Y-111261904D02*
X132549104Y-111261904D01*
X132549104Y-111261904D02*
X132453866Y-111309523D01*
X132453866Y-111309523D02*
X132406247Y-111357142D01*
X132406247Y-111357142D02*
X132358628Y-111452380D01*
X132358628Y-111452380D02*
X132311009Y-111642856D01*
X132311009Y-111642856D02*
X132263390Y-111738094D01*
X132263390Y-111738094D02*
X132215771Y-111785713D01*
X132215771Y-111785713D02*
X132120533Y-111833332D01*
X132120533Y-111833332D02*
X132025295Y-111833332D01*
X132025295Y-111833332D02*
X131930057Y-111785713D01*
X131930057Y-111785713D02*
X131882438Y-111738094D01*
X131882438Y-111738094D02*
X131834819Y-111642856D01*
X131834819Y-111642856D02*
X131834819Y-111404761D01*
X131834819Y-111404761D02*
X131882438Y-111261904D01*
X131834819Y-110928570D02*
X132834819Y-110690475D01*
X132834819Y-110690475D02*
X132120533Y-110499999D01*
X132120533Y-110499999D02*
X132834819Y-110309523D01*
X132834819Y-110309523D02*
X131834819Y-110071428D01*
X132834819Y-109166666D02*
X132834819Y-109738094D01*
X132834819Y-109452380D02*
X131834819Y-109452380D01*
X131834819Y-109452380D02*
X131977676Y-109547618D01*
X131977676Y-109547618D02*
X132072914Y-109642856D01*
X132072914Y-109642856D02*
X132120533Y-109738094D01*
X168034819Y-111738094D02*
X167034819Y-111738094D01*
X167034819Y-111738094D02*
X167034819Y-111499999D01*
X167034819Y-111499999D02*
X167082438Y-111357142D01*
X167082438Y-111357142D02*
X167177676Y-111261904D01*
X167177676Y-111261904D02*
X167272914Y-111214285D01*
X167272914Y-111214285D02*
X167463390Y-111166666D01*
X167463390Y-111166666D02*
X167606247Y-111166666D01*
X167606247Y-111166666D02*
X167796723Y-111214285D01*
X167796723Y-111214285D02*
X167891961Y-111261904D01*
X167891961Y-111261904D02*
X167987200Y-111357142D01*
X167987200Y-111357142D02*
X168034819Y-111499999D01*
X168034819Y-111499999D02*
X168034819Y-111738094D01*
X168034819Y-110214285D02*
X168034819Y-110785713D01*
X168034819Y-110499999D02*
X167034819Y-110499999D01*
X167034819Y-110499999D02*
X167177676Y-110595237D01*
X167177676Y-110595237D02*
X167272914Y-110690475D01*
X167272914Y-110690475D02*
X167320533Y-110785713D01*
X160354819Y-106764286D02*
X159878628Y-107097619D01*
X160354819Y-107335714D02*
X159354819Y-107335714D01*
X159354819Y-107335714D02*
X159354819Y-106954762D01*
X159354819Y-106954762D02*
X159402438Y-106859524D01*
X159402438Y-106859524D02*
X159450057Y-106811905D01*
X159450057Y-106811905D02*
X159545295Y-106764286D01*
X159545295Y-106764286D02*
X159688152Y-106764286D01*
X159688152Y-106764286D02*
X159783390Y-106811905D01*
X159783390Y-106811905D02*
X159831009Y-106859524D01*
X159831009Y-106859524D02*
X159878628Y-106954762D01*
X159878628Y-106954762D02*
X159878628Y-107335714D01*
X160354819Y-106335714D02*
X159688152Y-106335714D01*
X159354819Y-106335714D02*
X159402438Y-106383333D01*
X159402438Y-106383333D02*
X159450057Y-106335714D01*
X159450057Y-106335714D02*
X159402438Y-106288095D01*
X159402438Y-106288095D02*
X159354819Y-106335714D01*
X159354819Y-106335714D02*
X159450057Y-106335714D01*
X159688152Y-105430953D02*
X160497676Y-105430953D01*
X160497676Y-105430953D02*
X160592914Y-105478572D01*
X160592914Y-105478572D02*
X160640533Y-105526191D01*
X160640533Y-105526191D02*
X160688152Y-105621429D01*
X160688152Y-105621429D02*
X160688152Y-105764286D01*
X160688152Y-105764286D02*
X160640533Y-105859524D01*
X160307200Y-105430953D02*
X160354819Y-105526191D01*
X160354819Y-105526191D02*
X160354819Y-105716667D01*
X160354819Y-105716667D02*
X160307200Y-105811905D01*
X160307200Y-105811905D02*
X160259580Y-105859524D01*
X160259580Y-105859524D02*
X160164342Y-105907143D01*
X160164342Y-105907143D02*
X159878628Y-105907143D01*
X159878628Y-105907143D02*
X159783390Y-105859524D01*
X159783390Y-105859524D02*
X159735771Y-105811905D01*
X159735771Y-105811905D02*
X159688152Y-105716667D01*
X159688152Y-105716667D02*
X159688152Y-105526191D01*
X159688152Y-105526191D02*
X159735771Y-105430953D01*
X160354819Y-104954762D02*
X159354819Y-104954762D01*
X160354819Y-104526191D02*
X159831009Y-104526191D01*
X159831009Y-104526191D02*
X159735771Y-104573810D01*
X159735771Y-104573810D02*
X159688152Y-104669048D01*
X159688152Y-104669048D02*
X159688152Y-104811905D01*
X159688152Y-104811905D02*
X159735771Y-104907143D01*
X159735771Y-104907143D02*
X159783390Y-104954762D01*
X159688152Y-104192857D02*
X159688152Y-103811905D01*
X159354819Y-104050000D02*
X160211961Y-104050000D01*
X160211961Y-104050000D02*
X160307200Y-104002381D01*
X160307200Y-104002381D02*
X160354819Y-103907143D01*
X160354819Y-103907143D02*
X160354819Y-103811905D01*
X160450057Y-103716667D02*
X160450057Y-102954762D01*
X160307200Y-102335714D02*
X160354819Y-102430952D01*
X160354819Y-102430952D02*
X160354819Y-102621428D01*
X160354819Y-102621428D02*
X160307200Y-102716666D01*
X160307200Y-102716666D02*
X160211961Y-102764285D01*
X160211961Y-102764285D02*
X159831009Y-102764285D01*
X159831009Y-102764285D02*
X159735771Y-102716666D01*
X159735771Y-102716666D02*
X159688152Y-102621428D01*
X159688152Y-102621428D02*
X159688152Y-102430952D01*
X159688152Y-102430952D02*
X159735771Y-102335714D01*
X159735771Y-102335714D02*
X159831009Y-102288095D01*
X159831009Y-102288095D02*
X159926247Y-102288095D01*
X159926247Y-102288095D02*
X160021485Y-102764285D01*
X159688152Y-101954761D02*
X160354819Y-101716666D01*
X159688152Y-101478571D02*
X160354819Y-101716666D01*
X160354819Y-101716666D02*
X160592914Y-101811904D01*
X160592914Y-101811904D02*
X160640533Y-101859523D01*
X160640533Y-101859523D02*
X160688152Y-101954761D01*
X160307200Y-100716666D02*
X160354819Y-100811904D01*
X160354819Y-100811904D02*
X160354819Y-101002380D01*
X160354819Y-101002380D02*
X160307200Y-101097618D01*
X160307200Y-101097618D02*
X160211961Y-101145237D01*
X160211961Y-101145237D02*
X159831009Y-101145237D01*
X159831009Y-101145237D02*
X159735771Y-101097618D01*
X159735771Y-101097618D02*
X159688152Y-101002380D01*
X159688152Y-101002380D02*
X159688152Y-100811904D01*
X159688152Y-100811904D02*
X159735771Y-100716666D01*
X159735771Y-100716666D02*
X159831009Y-100669047D01*
X159831009Y-100669047D02*
X159926247Y-100669047D01*
X159926247Y-100669047D02*
X160021485Y-101145237D01*
X160354819Y-99716666D02*
X160354819Y-100288094D01*
X160354819Y-100002380D02*
X159354819Y-100002380D01*
X159354819Y-100002380D02*
X159497676Y-100097618D01*
X159497676Y-100097618D02*
X159592914Y-100192856D01*
X159592914Y-100192856D02*
X159640533Y-100288094D01*
X133504819Y-103235715D02*
X133504819Y-103711905D01*
X133504819Y-103711905D02*
X132504819Y-103711905D01*
X133457200Y-102521429D02*
X133504819Y-102616667D01*
X133504819Y-102616667D02*
X133504819Y-102807143D01*
X133504819Y-102807143D02*
X133457200Y-102902381D01*
X133457200Y-102902381D02*
X133361961Y-102950000D01*
X133361961Y-102950000D02*
X132981009Y-102950000D01*
X132981009Y-102950000D02*
X132885771Y-102902381D01*
X132885771Y-102902381D02*
X132838152Y-102807143D01*
X132838152Y-102807143D02*
X132838152Y-102616667D01*
X132838152Y-102616667D02*
X132885771Y-102521429D01*
X132885771Y-102521429D02*
X132981009Y-102473810D01*
X132981009Y-102473810D02*
X133076247Y-102473810D01*
X133076247Y-102473810D02*
X133171485Y-102950000D01*
X132838152Y-102188095D02*
X132838152Y-101807143D01*
X133504819Y-102045238D02*
X132647676Y-102045238D01*
X132647676Y-102045238D02*
X132552438Y-101997619D01*
X132552438Y-101997619D02*
X132504819Y-101902381D01*
X132504819Y-101902381D02*
X132504819Y-101807143D01*
X132838152Y-101616666D02*
X132838152Y-101235714D01*
X132504819Y-101473809D02*
X133361961Y-101473809D01*
X133361961Y-101473809D02*
X133457200Y-101426190D01*
X133457200Y-101426190D02*
X133504819Y-101330952D01*
X133504819Y-101330952D02*
X133504819Y-101235714D01*
X133600057Y-101140476D02*
X133600057Y-100378571D01*
X133457200Y-99759523D02*
X133504819Y-99854761D01*
X133504819Y-99854761D02*
X133504819Y-100045237D01*
X133504819Y-100045237D02*
X133457200Y-100140475D01*
X133457200Y-100140475D02*
X133361961Y-100188094D01*
X133361961Y-100188094D02*
X132981009Y-100188094D01*
X132981009Y-100188094D02*
X132885771Y-100140475D01*
X132885771Y-100140475D02*
X132838152Y-100045237D01*
X132838152Y-100045237D02*
X132838152Y-99854761D01*
X132838152Y-99854761D02*
X132885771Y-99759523D01*
X132885771Y-99759523D02*
X132981009Y-99711904D01*
X132981009Y-99711904D02*
X133076247Y-99711904D01*
X133076247Y-99711904D02*
X133171485Y-100188094D01*
X132838152Y-99378570D02*
X133504819Y-99140475D01*
X132838152Y-98902380D02*
X133504819Y-99140475D01*
X133504819Y-99140475D02*
X133742914Y-99235713D01*
X133742914Y-99235713D02*
X133790533Y-99283332D01*
X133790533Y-99283332D02*
X133838152Y-99378570D01*
X133457200Y-98140475D02*
X133504819Y-98235713D01*
X133504819Y-98235713D02*
X133504819Y-98426189D01*
X133504819Y-98426189D02*
X133457200Y-98521427D01*
X133457200Y-98521427D02*
X133361961Y-98569046D01*
X133361961Y-98569046D02*
X132981009Y-98569046D01*
X132981009Y-98569046D02*
X132885771Y-98521427D01*
X132885771Y-98521427D02*
X132838152Y-98426189D01*
X132838152Y-98426189D02*
X132838152Y-98235713D01*
X132838152Y-98235713D02*
X132885771Y-98140475D01*
X132885771Y-98140475D02*
X132981009Y-98092856D01*
X132981009Y-98092856D02*
X133076247Y-98092856D01*
X133076247Y-98092856D02*
X133171485Y-98569046D01*
X133504819Y-97140475D02*
X133504819Y-97711903D01*
X133504819Y-97426189D02*
X132504819Y-97426189D01*
X132504819Y-97426189D02*
X132647676Y-97521427D01*
X132647676Y-97521427D02*
X132742914Y-97616665D01*
X132742914Y-97616665D02*
X132790533Y-97711903D01*
X159737619Y-93054819D02*
X159737619Y-92054819D01*
X159737619Y-92054819D02*
X160070952Y-92769104D01*
X160070952Y-92769104D02*
X160404285Y-92054819D01*
X160404285Y-92054819D02*
X160404285Y-93054819D01*
X161023333Y-93054819D02*
X160928095Y-93007200D01*
X160928095Y-93007200D02*
X160880476Y-92959580D01*
X160880476Y-92959580D02*
X160832857Y-92864342D01*
X160832857Y-92864342D02*
X160832857Y-92578628D01*
X160832857Y-92578628D02*
X160880476Y-92483390D01*
X160880476Y-92483390D02*
X160928095Y-92435771D01*
X160928095Y-92435771D02*
X161023333Y-92388152D01*
X161023333Y-92388152D02*
X161166190Y-92388152D01*
X161166190Y-92388152D02*
X161261428Y-92435771D01*
X161261428Y-92435771D02*
X161309047Y-92483390D01*
X161309047Y-92483390D02*
X161356666Y-92578628D01*
X161356666Y-92578628D02*
X161356666Y-92864342D01*
X161356666Y-92864342D02*
X161309047Y-92959580D01*
X161309047Y-92959580D02*
X161261428Y-93007200D01*
X161261428Y-93007200D02*
X161166190Y-93054819D01*
X161166190Y-93054819D02*
X161023333Y-93054819D01*
X162213809Y-92388152D02*
X162213809Y-93054819D01*
X161785238Y-92388152D02*
X161785238Y-92911961D01*
X161785238Y-92911961D02*
X161832857Y-93007200D01*
X161832857Y-93007200D02*
X161928095Y-93054819D01*
X161928095Y-93054819D02*
X162070952Y-93054819D01*
X162070952Y-93054819D02*
X162166190Y-93007200D01*
X162166190Y-93007200D02*
X162213809Y-92959580D01*
X162547143Y-92388152D02*
X162928095Y-92388152D01*
X162690000Y-92054819D02*
X162690000Y-92911961D01*
X162690000Y-92911961D02*
X162737619Y-93007200D01*
X162737619Y-93007200D02*
X162832857Y-93054819D01*
X162832857Y-93054819D02*
X162928095Y-93054819D01*
X163261429Y-93054819D02*
X163261429Y-92054819D01*
X163690000Y-93054819D02*
X163690000Y-92531009D01*
X163690000Y-92531009D02*
X163642381Y-92435771D01*
X163642381Y-92435771D02*
X163547143Y-92388152D01*
X163547143Y-92388152D02*
X163404286Y-92388152D01*
X163404286Y-92388152D02*
X163309048Y-92435771D01*
X163309048Y-92435771D02*
X163261429Y-92483390D01*
X164690000Y-93054819D02*
X164118572Y-93054819D01*
X164404286Y-93054819D02*
X164404286Y-92054819D01*
X164404286Y-92054819D02*
X164309048Y-92197676D01*
X164309048Y-92197676D02*
X164213810Y-92292914D01*
X164213810Y-92292914D02*
X164118572Y-92340533D01*
X178166666Y-83454819D02*
X177833333Y-82978628D01*
X177595238Y-83454819D02*
X177595238Y-82454819D01*
X177595238Y-82454819D02*
X177976190Y-82454819D01*
X177976190Y-82454819D02*
X178071428Y-82502438D01*
X178071428Y-82502438D02*
X178119047Y-82550057D01*
X178119047Y-82550057D02*
X178166666Y-82645295D01*
X178166666Y-82645295D02*
X178166666Y-82788152D01*
X178166666Y-82788152D02*
X178119047Y-82883390D01*
X178119047Y-82883390D02*
X178071428Y-82931009D01*
X178071428Y-82931009D02*
X177976190Y-82978628D01*
X177976190Y-82978628D02*
X177595238Y-82978628D01*
X178595238Y-82931009D02*
X178928571Y-82931009D01*
X179071428Y-83454819D02*
X178595238Y-83454819D01*
X178595238Y-83454819D02*
X178595238Y-82454819D01*
X178595238Y-82454819D02*
X179071428Y-82454819D01*
X179833333Y-82931009D02*
X179500000Y-82931009D01*
X179500000Y-83454819D02*
X179500000Y-82454819D01*
X179500000Y-82454819D02*
X179976190Y-82454819D01*
X180500000Y-82454819D02*
X180500000Y-82692914D01*
X180261905Y-82597676D02*
X180500000Y-82692914D01*
X180500000Y-82692914D02*
X180738095Y-82597676D01*
X180357143Y-82883390D02*
X180500000Y-82692914D01*
X180500000Y-82692914D02*
X180642857Y-82883390D01*
X181261905Y-82454819D02*
X181261905Y-82692914D01*
X181023810Y-82597676D02*
X181261905Y-82692914D01*
X181261905Y-82692914D02*
X181500000Y-82597676D01*
X181119048Y-82883390D02*
X181261905Y-82692914D01*
X181261905Y-82692914D02*
X181404762Y-82883390D01*
X111666666Y-105454819D02*
X111333333Y-104978628D01*
X111095238Y-105454819D02*
X111095238Y-104454819D01*
X111095238Y-104454819D02*
X111476190Y-104454819D01*
X111476190Y-104454819D02*
X111571428Y-104502438D01*
X111571428Y-104502438D02*
X111619047Y-104550057D01*
X111619047Y-104550057D02*
X111666666Y-104645295D01*
X111666666Y-104645295D02*
X111666666Y-104788152D01*
X111666666Y-104788152D02*
X111619047Y-104883390D01*
X111619047Y-104883390D02*
X111571428Y-104931009D01*
X111571428Y-104931009D02*
X111476190Y-104978628D01*
X111476190Y-104978628D02*
X111095238Y-104978628D01*
X112095238Y-104931009D02*
X112428571Y-104931009D01*
X112571428Y-105454819D02*
X112095238Y-105454819D01*
X112095238Y-105454819D02*
X112095238Y-104454819D01*
X112095238Y-104454819D02*
X112571428Y-104454819D01*
X113333333Y-104931009D02*
X113000000Y-104931009D01*
X113000000Y-105454819D02*
X113000000Y-104454819D01*
X113000000Y-104454819D02*
X113476190Y-104454819D01*
X114000000Y-104454819D02*
X114000000Y-104692914D01*
X113761905Y-104597676D02*
X114000000Y-104692914D01*
X114000000Y-104692914D02*
X114238095Y-104597676D01*
X113857143Y-104883390D02*
X114000000Y-104692914D01*
X114000000Y-104692914D02*
X114142857Y-104883390D01*
X114761905Y-104454819D02*
X114761905Y-104692914D01*
X114523810Y-104597676D02*
X114761905Y-104692914D01*
X114761905Y-104692914D02*
X115000000Y-104597676D01*
X114619048Y-104883390D02*
X114761905Y-104692914D01*
X114761905Y-104692914D02*
X114904762Y-104883390D01*
D12*
X119333332Y-100457419D02*
X118857142Y-100457419D01*
X118857142Y-100457419D02*
X118857142Y-99457419D01*
X120047618Y-100409800D02*
X119952380Y-100457419D01*
X119952380Y-100457419D02*
X119761904Y-100457419D01*
X119761904Y-100457419D02*
X119666666Y-100409800D01*
X119666666Y-100409800D02*
X119619047Y-100314561D01*
X119619047Y-100314561D02*
X119619047Y-99933609D01*
X119619047Y-99933609D02*
X119666666Y-99838371D01*
X119666666Y-99838371D02*
X119761904Y-99790752D01*
X119761904Y-99790752D02*
X119952380Y-99790752D01*
X119952380Y-99790752D02*
X120047618Y-99838371D01*
X120047618Y-99838371D02*
X120095237Y-99933609D01*
X120095237Y-99933609D02*
X120095237Y-100028847D01*
X120095237Y-100028847D02*
X119619047Y-100124085D01*
X120380952Y-99790752D02*
X120761904Y-99790752D01*
X120523809Y-100457419D02*
X120523809Y-99600276D01*
X120523809Y-99600276D02*
X120571428Y-99505038D01*
X120571428Y-99505038D02*
X120666666Y-99457419D01*
X120666666Y-99457419D02*
X120761904Y-99457419D01*
X120952381Y-99790752D02*
X121333333Y-99790752D01*
X121095238Y-99457419D02*
X121095238Y-100314561D01*
X121095238Y-100314561D02*
X121142857Y-100409800D01*
X121142857Y-100409800D02*
X121238095Y-100457419D01*
X121238095Y-100457419D02*
X121333333Y-100457419D01*
X122190476Y-100457419D02*
X121619048Y-100457419D01*
X121904762Y-100457419D02*
X121904762Y-99457419D01*
X121904762Y-99457419D02*
X121809524Y-99600276D01*
X121809524Y-99600276D02*
X121714286Y-99695514D01*
X121714286Y-99695514D02*
X121619048Y-99743133D01*
X157881904Y-98542580D02*
X157881904Y-97733057D01*
X157881904Y-97733057D02*
X157834285Y-97637819D01*
X157834285Y-97637819D02*
X157786666Y-97590200D01*
X157786666Y-97590200D02*
X157691428Y-97542580D01*
X157691428Y-97542580D02*
X157500952Y-97542580D01*
X157500952Y-97542580D02*
X157405714Y-97590200D01*
X157405714Y-97590200D02*
X157358095Y-97637819D01*
X157358095Y-97637819D02*
X157310476Y-97733057D01*
X157310476Y-97733057D02*
X157310476Y-98542580D01*
X156881904Y-98447342D02*
X156834285Y-98494961D01*
X156834285Y-98494961D02*
X156739047Y-98542580D01*
X156739047Y-98542580D02*
X156500952Y-98542580D01*
X156500952Y-98542580D02*
X156405714Y-98494961D01*
X156405714Y-98494961D02*
X156358095Y-98447342D01*
X156358095Y-98447342D02*
X156310476Y-98352104D01*
X156310476Y-98352104D02*
X156310476Y-98256866D01*
X156310476Y-98256866D02*
X156358095Y-98114009D01*
X156358095Y-98114009D02*
X156929523Y-97542580D01*
X156929523Y-97542580D02*
X156310476Y-97542580D01*
D11*
X120166666Y-83454819D02*
X119833333Y-82978628D01*
X119595238Y-83454819D02*
X119595238Y-82454819D01*
X119595238Y-82454819D02*
X119976190Y-82454819D01*
X119976190Y-82454819D02*
X120071428Y-82502438D01*
X120071428Y-82502438D02*
X120119047Y-82550057D01*
X120119047Y-82550057D02*
X120166666Y-82645295D01*
X120166666Y-82645295D02*
X120166666Y-82788152D01*
X120166666Y-82788152D02*
X120119047Y-82883390D01*
X120119047Y-82883390D02*
X120071428Y-82931009D01*
X120071428Y-82931009D02*
X119976190Y-82978628D01*
X119976190Y-82978628D02*
X119595238Y-82978628D01*
X120595238Y-82931009D02*
X120928571Y-82931009D01*
X121071428Y-83454819D02*
X120595238Y-83454819D01*
X120595238Y-83454819D02*
X120595238Y-82454819D01*
X120595238Y-82454819D02*
X121071428Y-82454819D01*
X121833333Y-82931009D02*
X121500000Y-82931009D01*
X121500000Y-83454819D02*
X121500000Y-82454819D01*
X121500000Y-82454819D02*
X121976190Y-82454819D01*
X122500000Y-82454819D02*
X122500000Y-82692914D01*
X122261905Y-82597676D02*
X122500000Y-82692914D01*
X122500000Y-82692914D02*
X122738095Y-82597676D01*
X122357143Y-82883390D02*
X122500000Y-82692914D01*
X122500000Y-82692914D02*
X122642857Y-82883390D01*
X123261905Y-82454819D02*
X123261905Y-82692914D01*
X123023810Y-82597676D02*
X123261905Y-82692914D01*
X123261905Y-82692914D02*
X123500000Y-82597676D01*
X123119048Y-82883390D02*
X123261905Y-82692914D01*
X123261905Y-82692914D02*
X123404762Y-82883390D01*
D12*
X176904761Y-100457419D02*
X176571428Y-99981228D01*
X176333333Y-100457419D02*
X176333333Y-99457419D01*
X176333333Y-99457419D02*
X176714285Y-99457419D01*
X176714285Y-99457419D02*
X176809523Y-99505038D01*
X176809523Y-99505038D02*
X176857142Y-99552657D01*
X176857142Y-99552657D02*
X176904761Y-99647895D01*
X176904761Y-99647895D02*
X176904761Y-99790752D01*
X176904761Y-99790752D02*
X176857142Y-99885990D01*
X176857142Y-99885990D02*
X176809523Y-99933609D01*
X176809523Y-99933609D02*
X176714285Y-99981228D01*
X176714285Y-99981228D02*
X176333333Y-99981228D01*
X177333333Y-100457419D02*
X177333333Y-99790752D01*
X177333333Y-99457419D02*
X177285714Y-99505038D01*
X177285714Y-99505038D02*
X177333333Y-99552657D01*
X177333333Y-99552657D02*
X177380952Y-99505038D01*
X177380952Y-99505038D02*
X177333333Y-99457419D01*
X177333333Y-99457419D02*
X177333333Y-99552657D01*
X178238094Y-99790752D02*
X178238094Y-100600276D01*
X178238094Y-100600276D02*
X178190475Y-100695514D01*
X178190475Y-100695514D02*
X178142856Y-100743133D01*
X178142856Y-100743133D02*
X178047618Y-100790752D01*
X178047618Y-100790752D02*
X177904761Y-100790752D01*
X177904761Y-100790752D02*
X177809523Y-100743133D01*
X178238094Y-100409800D02*
X178142856Y-100457419D01*
X178142856Y-100457419D02*
X177952380Y-100457419D01*
X177952380Y-100457419D02*
X177857142Y-100409800D01*
X177857142Y-100409800D02*
X177809523Y-100362180D01*
X177809523Y-100362180D02*
X177761904Y-100266942D01*
X177761904Y-100266942D02*
X177761904Y-99981228D01*
X177761904Y-99981228D02*
X177809523Y-99885990D01*
X177809523Y-99885990D02*
X177857142Y-99838371D01*
X177857142Y-99838371D02*
X177952380Y-99790752D01*
X177952380Y-99790752D02*
X178142856Y-99790752D01*
X178142856Y-99790752D02*
X178238094Y-99838371D01*
X178714285Y-100457419D02*
X178714285Y-99457419D01*
X179142856Y-100457419D02*
X179142856Y-99933609D01*
X179142856Y-99933609D02*
X179095237Y-99838371D01*
X179095237Y-99838371D02*
X178999999Y-99790752D01*
X178999999Y-99790752D02*
X178857142Y-99790752D01*
X178857142Y-99790752D02*
X178761904Y-99838371D01*
X178761904Y-99838371D02*
X178714285Y-99885990D01*
X179476190Y-99790752D02*
X179857142Y-99790752D01*
X179619047Y-99457419D02*
X179619047Y-100314561D01*
X179619047Y-100314561D02*
X179666666Y-100409800D01*
X179666666Y-100409800D02*
X179761904Y-100457419D01*
X179761904Y-100457419D02*
X179857142Y-100457419D01*
X180714285Y-100457419D02*
X180142857Y-100457419D01*
X180428571Y-100457419D02*
X180428571Y-99457419D01*
X180428571Y-99457419D02*
X180333333Y-99600276D01*
X180333333Y-99600276D02*
X180238095Y-99695514D01*
X180238095Y-99695514D02*
X180142857Y-99743133D01*
D11*
X183666666Y-107454819D02*
X183333333Y-106978628D01*
X183095238Y-107454819D02*
X183095238Y-106454819D01*
X183095238Y-106454819D02*
X183476190Y-106454819D01*
X183476190Y-106454819D02*
X183571428Y-106502438D01*
X183571428Y-106502438D02*
X183619047Y-106550057D01*
X183619047Y-106550057D02*
X183666666Y-106645295D01*
X183666666Y-106645295D02*
X183666666Y-106788152D01*
X183666666Y-106788152D02*
X183619047Y-106883390D01*
X183619047Y-106883390D02*
X183571428Y-106931009D01*
X183571428Y-106931009D02*
X183476190Y-106978628D01*
X183476190Y-106978628D02*
X183095238Y-106978628D01*
X184095238Y-106931009D02*
X184428571Y-106931009D01*
X184571428Y-107454819D02*
X184095238Y-107454819D01*
X184095238Y-107454819D02*
X184095238Y-106454819D01*
X184095238Y-106454819D02*
X184571428Y-106454819D01*
X185333333Y-106931009D02*
X185000000Y-106931009D01*
X185000000Y-107454819D02*
X185000000Y-106454819D01*
X185000000Y-106454819D02*
X185476190Y-106454819D01*
X186000000Y-106454819D02*
X186000000Y-106692914D01*
X185761905Y-106597676D02*
X186000000Y-106692914D01*
X186000000Y-106692914D02*
X186238095Y-106597676D01*
X185857143Y-106883390D02*
X186000000Y-106692914D01*
X186000000Y-106692914D02*
X186142857Y-106883390D01*
X186761905Y-106454819D02*
X186761905Y-106692914D01*
X186523810Y-106597676D02*
X186761905Y-106692914D01*
X186761905Y-106692914D02*
X187000000Y-106597676D01*
X186619048Y-106883390D02*
X186761905Y-106692914D01*
X186761905Y-106692914D02*
X186904762Y-106883390D01*
%TO.C,J2*%
D13*
X124440000Y-84580000D02*
X175460000Y-84580000D01*
X124440000Y-87230000D02*
X124440000Y-84580000D01*
X124440000Y-89880000D02*
X124440000Y-88500000D01*
X125820000Y-89880000D02*
X124440000Y-89880000D01*
X127090000Y-87230000D02*
X124440000Y-87230000D01*
X127090000Y-89880000D02*
X127090000Y-87230000D01*
X127090000Y-89880000D02*
X175460000Y-89880000D01*
X175460000Y-89880000D02*
X175460000Y-84580000D01*
%TO.C,SW1*%
X126080000Y-109120000D02*
X126080000Y-111880000D01*
X128730000Y-109120000D02*
X126080000Y-109120000D01*
X128730000Y-109120000D02*
X128730000Y-111880000D01*
X128730000Y-111880000D02*
X126080000Y-111880000D01*
X130000000Y-109120000D02*
X131380000Y-109120000D01*
X131380000Y-109120000D02*
X131380000Y-110500000D01*
%TO.C,D1*%
X168580000Y-112380000D02*
X168580000Y-111000000D01*
X169960000Y-112380000D02*
X168580000Y-112380000D01*
X171230000Y-109620000D02*
X173880000Y-109620000D01*
X171230000Y-112380000D02*
X171230000Y-109620000D01*
X171230000Y-112380000D02*
X173880000Y-112380000D01*
X173880000Y-112380000D02*
X173880000Y-109620000D01*
%TO.C,Right_eye1*%
X161520000Y-94630000D02*
X162900000Y-94630000D01*
X161520000Y-96010000D02*
X161520000Y-94630000D01*
X161520000Y-97280000D02*
X161520000Y-112630000D01*
X161520000Y-97280000D02*
X164280000Y-97280000D01*
X161520000Y-112630000D02*
X164280000Y-112630000D01*
X164280000Y-97280000D02*
X164280000Y-112630000D01*
%TO.C,Left_eye1*%
X135170000Y-94450000D02*
X136550000Y-94450000D01*
X135170000Y-95830000D02*
X135170000Y-94450000D01*
X135170000Y-97100000D02*
X135170000Y-112450000D01*
X135170000Y-97100000D02*
X137930000Y-97100000D01*
X135170000Y-112450000D02*
X137930000Y-112450000D01*
X137930000Y-97100000D02*
X137930000Y-112450000D01*
%TO.C,Mouth1*%
X141070000Y-91220000D02*
X141070000Y-93980000D01*
X156420000Y-91220000D02*
X141070000Y-91220000D01*
X156420000Y-91220000D02*
X156420000Y-93980000D01*
X156420000Y-93980000D02*
X141070000Y-93980000D01*
X157690000Y-91220000D02*
X159070000Y-91220000D01*
X159070000Y-91220000D02*
X159070000Y-92600000D01*
%TO.C,U2*%
D12*
X140610000Y-97500000D02*
X140610000Y-97500000D01*
G75*
G02*
X143150000Y-94960000I2540000J0D01*
G01*
X155850000Y-94960000D01*
G75*
G02*
X158390000Y-97500000I0J-2540000D01*
G01*
X158390000Y-111470000D01*
G75*
G02*
X155850000Y-114010000I-2540000J0D01*
G01*
X143150000Y-114010000D01*
G75*
G02*
X140610000Y-111470000I0J2540000D01*
G01*
X140610000Y-97500000D01*
%TD*%
M02*
