M48
; DRILL file KiCad 10.0.3-2.fc44 date 2026-06-02T16:33:35
; FORMAT={-:-/ absolute / metric / decimal}
; #@! TF.CreationDate,2026-06-02T16:33:35-06:00
; #@! TF.GenerationSoftware,Kicad,Pcbnew,10.0.3-2.fc44
; #@! TF.FileFunction,Plated,1,2,PTH
FMAT,2
METRIC
; #@! TA.AperFunction,Plated,PTH,ComponentDrill
T1C1.000
; #@! TA.AperFunction,Plated,PTH,ComponentDrill
T2C2.540
; #@! TA.AperFunction,Plated,PTH,ComponentDrill
T3C2.700
%
G90
G05
T1
X122.42Y-96.5
X122.42Y-101.58
X124.96Y-96.5
X124.96Y-101.58
X125.82Y-85.96
X125.82Y-88.5
X127.46Y-110.5
X127.5Y-96.5
X127.5Y-101.58
X128.36Y-85.96
X128.36Y-88.5
X130.0Y-110.5
X130.9Y-85.96
X130.9Y-88.5
X133.44Y-85.96
X133.44Y-88.5
X135.98Y-85.96
X135.98Y-88.5
X136.55Y-95.83
X136.55Y-98.37
X136.55Y-100.91
X136.55Y-103.45
X136.55Y-105.99
X136.55Y-108.53
X136.55Y-111.07
X138.52Y-85.96
X138.52Y-88.5
X141.06Y-85.96
X141.06Y-88.5
X141.88Y-97.5
X142.45Y-92.6
X143.6Y-85.96
X143.6Y-88.5
X144.42Y-97.5
X144.99Y-92.6
X146.14Y-85.96
X146.14Y-88.5
X146.96Y-97.5
X147.53Y-92.6
X148.68Y-85.96
X148.68Y-88.5
X149.5Y-97.5
X150.07Y-92.6
X151.22Y-85.96
X151.22Y-88.5
X152.04Y-97.5
X152.61Y-92.6
X153.76Y-85.96
X153.76Y-88.5
X154.58Y-97.5
X155.15Y-92.6
X156.3Y-85.96
X156.3Y-88.5
X157.12Y-97.5
X157.69Y-92.6
X158.84Y-85.96
X158.84Y-88.5
X161.38Y-85.96
X161.38Y-88.5
X162.9Y-96.01
X162.9Y-98.55
X162.9Y-101.09
X162.9Y-103.63
X162.9Y-106.17
X162.9Y-108.71
X162.9Y-111.25
X163.92Y-85.96
X163.92Y-88.5
X166.46Y-85.96
X166.46Y-88.5
X169.0Y-85.96
X169.0Y-88.5
X169.96Y-111.0
X171.54Y-85.96
X171.54Y-88.5
X172.5Y-111.0
X172.96Y-97.0
X172.96Y-102.08
X174.08Y-85.96
X174.08Y-88.5
X175.5Y-97.0
X175.5Y-102.08
X178.04Y-97.0
X178.04Y-102.08
T2
X143.15Y-111.47
X155.85Y-111.47
T3
X121.0Y-87.5
X121.0Y-110.5
X179.0Y-87.5
X179.0Y-110.5
M30
